<svg xmlns="http://www.w3.org/2000/svg" xmlns:xlink="http://www.w3.org/1999/xlink" viewBox="0 0 126.75 126.75"><defs><style>.cls-1,.cls-13{fill:none;}.cls-2{isolation:isolate;}.cls-11,.cls-3{fill:#fdbf09;}.cls-10,.cls-4{fill:#fff;}.cls-5,.cls-7{fill:#310086;}.cls-6{fill:#ff5400;}.cls-7{font-size:11.55px;stroke:#310086;stroke-width:0.21px;font-family:Montserrat-Bold, Montserrat Bold;font-weight:700;}.cls-12,.cls-7{stroke-miterlimit:10;}.cls-8{clip-path:url(#clip-path);}.cls-12,.cls-9{fill:#16172a;}.cls-10{mix-blend-mode:soft-light;}.cls-11{mix-blend-mode:multiply;}.cls-12,.cls-13{stroke:#16172a;}.cls-12{stroke-width:0.31px;}.cls-13{stroke-linecap:round;stroke-linejoin:round;stroke-width:0.61px;}</style><clipPath id="clip-path"><path class="cls-1" d="M96.94,67C97,82.83,80.9,97.2,64.36,97.41s-36.8-13.12-37-29.66S50.29,16.64,66.78,15.41C106.85,12.42,96.88,50.42,96.94,67Z"/></clipPath></defs><g class="cls-2"><g id="Capa_2" data-name="Capa 2"><g id="Capa_1-2" data-name="Capa 1"><circle class="cls-3" cx="63.37" cy="63.37" r="60.75" transform="translate(-12.87 110.49) rotate(-76.72)"/><path class="cls-4" d="M63.37,5.25A58.13,58.13,0,1,1,5.25,63.37,58.13,58.13,0,0,1,63.37,5.25m0-5.25a63.38,63.38,0,1,0,63.38,63.37A63.44,63.44,0,0,0,63.37,0Z"/><circle class="cls-4" cx="63.37" cy="63.37" r="59.7" transform="translate(-12.87 110.49) rotate(-76.72)"/><path class="cls-5" d="M63.37,5.25A58.13,58.13,0,1,1,5.25,63.37,58.13,58.13,0,0,1,63.37,5.25m0-3.15a61.28,61.28,0,1,0,61.28,61.27A61.35,61.35,0,0,0,63.37,2.1Z"/><circle class="cls-4" cx="63.37" cy="63.37" r="56.43" transform="translate(-12.87 110.49) rotate(-76.72)"/><path class="cls-6" d="M63.37,8.63A54.75,54.75,0,1,1,8.63,63.37,54.81,54.81,0,0,1,63.37,8.63m0-3.38A58.13,58.13,0,1,0,121.5,63.37,58.12,58.12,0,0,0,63.37,5.25Z"/><text class="cls-7" transform="matrix(-0.47, 0.73, -0.84, -0.54, 98.23, 81.6)">C</text><text class="cls-7" transform="translate(94.5 87.3) rotate(133.59) scale(0.86 1)">O</text><text class="cls-7" transform="matrix(-0.72, 0.48, -0.56, -0.83, 88.9, 93.08)">M</text><text class="cls-7" transform="matrix(-0.8, 0.33, -0.38, -0.92, 81.12, 98)">P</text><text class="cls-7" transform="translate(75.79 100.21) rotate(166.39) scale(0.86 1)">A</text><text class="cls-7" transform="translate(68.64 101.84) rotate(177.19) scale(0.86 1)">N</text><text class="cls-7" transform="translate(60.91 102.06) rotate(-172.71) scale(0.86 1)">Y</text><text class="cls-7" transform="matrix(-0.83, -0.22, 0.25, -0.97, 54.26, 101.02)"> </text><text class="cls-7" transform="translate(50.93 100.22) rotate(-157.22) scale(0.86 1)">N</text><text class="cls-7" transform="matrix(-0.72, -0.48, 0.55, -0.83, 43.83, 97.09)">A</text><text class="cls-7" transform="translate(37.78 93.03) rotate(-134.36) scale(0.86 1)">M</text><text class="cls-7" transform="translate(31.55 86.27) rotate(-123.13) scale(0.86 1)">E</text><text class="cls-7" transform="translate(28.52 45.15) rotate(-57.22) scale(0.86 1)">C</text><text class="cls-7" transform="translate(32.25 39.45) rotate(-46.41) scale(0.86 1)">O</text><text class="cls-7" transform="translate(37.84 33.67) rotate(-33.91) scale(0.86 1)">M</text><text class="cls-7" transform="translate(45.63 28.74) rotate(-22.52) scale(0.86 1)">P</text><text class="cls-7" transform="translate(50.96 26.54) rotate(-13.61) scale(0.86 1)">A</text><text class="cls-7" transform="translate(58.1 24.91) rotate(-2.81) scale(0.86 1)">N</text><text class="cls-7" transform="matrix(0.86, 0.11, -0.13, 0.99, 65.84, 24.68)">Y</text><text class="cls-7" transform="translate(72.48 25.73) rotate(14.62) scale(0.86 1)"> </text><text class="cls-7" transform="translate(75.81 26.53) rotate(22.78) scale(0.86 1)">N</text><text class="cls-7" transform="matrix(0.72, 0.48, -0.55, 0.83, 82.92, 29.66)">A</text><text class="cls-7" transform="matrix(0.6, 0.62, -0.71, 0.7, 88.97, 33.72)">M</text><text class="cls-7" transform="matrix(0.47, 0.72, -0.84, 0.55, 95.2, 40.47)">E</text><circle class="cls-5" cx="106.4" cy="63.37" r="2.72"/><circle class="cls-5" cx="20.34" cy="63.37" r="2.72"/><ellipse class="cls-6" cx="63.37" cy="63.37" rx="34.45" ry="33.84"/><path class="cls-4" d="M63.37,34.15c16.42,0,29.78,13.11,29.78,29.22S79.79,92.59,63.37,92.59,33.59,79.48,33.59,63.37,47,34.15,63.37,34.15m0-1.75c-17.41,0-31.53,13.87-31.53,31s14.12,31,31.53,31,31.53-13.86,31.53-31-14.11-31-31.53-31Z"/><g class="cls-8"><path class="cls-9" d="M64.69,64.16q4.05,1.95,8,4.12c2.37,1.32,4.51,3,7,4.22a1.59,1.59,0,0,0,2.1-.55,1.55,1.55,0,0,0-.55-2.1c-2.46-1.18-4.6-2.89-7-4.21-2.62-1.46-5.29-2.83-8-4.12a1.57,1.57,0,0,0-2.1.55,1.54,1.54,0,0,0,.55,2.09Z"/><path class="cls-4" d="M95.94,70.33c-.4-2.64-4.19-2.92-6.44-4.1.08-1.13.72-2,.87-3.15A4.38,4.38,0,0,0,90,60.69c-.44-.94-1.79-2.36-3-2.2-1.55.21-2.37,3-2.79,4.22a9.3,9.3,0,0,1-2,3.68l-.41.4c-2.44-1.46-4.57,1.63-4.93,3.78-.31,1.84,1,5.16,3.18,4.3a6.48,6.48,0,0,0,2.15,2.77c2.32,1.74,7.69,2.4,9.14-.76,0,0,0,0,0,0a2.28,2.28,0,0,0,.73-.33,4.3,4.3,0,0,0,2-3.26A2.78,2.78,0,0,0,95.94,70.33Z"/><path class="cls-9" d="M90.56,76.67c-.75,1.79-3.19,1.61-4.81,1.47a5.82,5.82,0,0,1-3.82-1.87,6.42,6.42,0,0,1,.22-8.51,10.2,10.2,0,0,0,2.42-3.08c.68-1.47,1-3.11,1.85-4.49.22-.34.54-1,1-1,.31,0,.78.43,1,.63a3.31,3.31,0,0,1,1.06,2.36c0,1.42-1,2.59-.94,4,0,.74,1.18.74,1.15,0-.07-1.54,1.08-2.8.91-4.38a4.43,4.43,0,0,0-1.84-3.21A2.8,2.8,0,0,0,87.19,58c-.61,0-1,.55-1.35,1a17.25,17.25,0,0,0-2,4.57,7.43,7.43,0,0,1-1.33,2.25c-.48.55-1.09,1-1.55,1.54a7.89,7.89,0,0,0-1.54,3.8,7,7,0,0,0,3.31,7.15,8.71,8.71,0,0,0,4.87,1c1.61,0,3.32-.45,4-2.07.28-.67-.71-1.26-1-.58Z"/><path class="cls-9" d="M87.76,66.05a8.44,8.44,0,0,0,4.07,2.19,9,9,0,0,1,2.24.94c.55.35,1.29.91,1.19,1.64a2,2,0,0,1-1.35,1.52c-.58.23-1.28-.11-1.86-.24a12.64,12.64,0,0,1-2.41-.73,4.13,4.13,0,0,1-1.72-1.17,1.25,1.25,0,0,1,.24-1.68,3.64,3.64,0,0,1,1.77-.69.58.58,0,1,0-.31-1.11c-1.43.21-3.07,1.1-3.06,2.73,0,2,2.28,3,3.93,3.44.47.13.94.24,1.41.35a8.93,8.93,0,0,0,1.45.32,3.17,3.17,0,0,0,2.18-.9,2.63,2.63,0,0,0,.84-2.52,3.77,3.77,0,0,0-1.83-2c-1.89-1.13-4.47-1.12-6-2.88-.48-.56-1.29.25-.82.81Z"/><path class="cls-9" d="M93.28,73.31c.15.42-.23,1-.44,1.33a3.81,3.81,0,0,1-1,1.08,1.59,1.59,0,0,1-1.28.33,5.14,5.14,0,0,1-1.48-.39,6.92,6.92,0,0,1-1.31-.77,3.54,3.54,0,0,1-1-1c-.43-.8.44-1.8,1.2-1.94s.42-1.25-.3-1.11a2.78,2.78,0,0,0-2.06,2c-.34,1.24.44,2.09,1.35,2.8A7.06,7.06,0,0,0,89.9,77.1a4.16,4.16,0,0,0,1.61.08,3.19,3.19,0,0,0,1.41-.84A5,5,0,0,0,94,74.89,2.41,2.41,0,0,0,94.39,73c-.23-.7-1.34-.4-1.11.31Z"/><path class="cls-9" d="M81.81,66.75a2.59,2.59,0,0,0-3.39.33,6,6,0,0,0-1.85,3.31,4.57,4.57,0,0,0,.72,3.75,2.31,2.31,0,0,0,3.2.57c.56-.48-.25-1.29-.82-.81s-1.46-.35-1.73-.84a3.72,3.72,0,0,1-.2-2.61A5,5,0,0,1,79,68.14c.47-.48,1.37-1.1,2-.57a.6.6,0,0,0,.81,0,.57.57,0,0,0,0-.82Z"/><path class="cls-9" d="M88,78.12a3.7,3.7,0,0,1-1.74-.45c-.27-.14-.53-.31-.79-.48a3.07,3.07,0,0,1-.63-.55.86.86,0,0,1-.11-.7,2.13,2.13,0,0,1,.26-.77s.17-.16.1-.11l.14-.08c-.08,0,.08,0,.11,0s.2,0,.1,0a1.49,1.49,0,0,1,.73.09.58.58,0,0,0,.71-.4.6.6,0,0,0-.4-.71,2.48,2.48,0,0,0-1.8.07,2.17,2.17,0,0,0-1,1.63,2,2,0,0,0,.56,2,6.39,6.39,0,0,0,1.62,1.11,5.06,5.06,0,0,0,2.19.54.58.58,0,0,0,0-1.15Z"/><path class="cls-3" d="M76.61,18s8.45,4.59,8.69,7.76l-10,8.31s1.51,6-2.13,17.71-3.66,17.12-1,21.48,13.05,20.79,10.1,29.92-9.87,3.81-15.53.3S50,86.14,47.22,69.61s4.94-29.81,6.44-31.87,2.47-6.88,15.74-8.69a22.7,22.7,0,0,0,6.42-8.87Z"/><path class="cls-4" d="M49.47,72.12a45.47,45.47,0,0,1,.13-17.71c.08-.51.17-1,.28-1.52A44.18,44.18,0,0,1,51.15,48a34.92,34.92,0,0,1,4.73-10.21c1.48-2,2.45-6.73,15.14-8.6a44.48,44.48,0,0,0,6.8-8.38c.08-.2.15-.39.22-.58l.27-.73C77,18.58,75.91,18,75.91,18l-.79,2.16a22.7,22.7,0,0,1-6.42,8.87C55.43,30.86,54.47,35.67,53,37.74A34.64,34.64,0,0,0,48.24,48,44.22,44.22,0,0,0,47,52.89c-2.84,14.18.52,30.74,10.09,41.8a133.66,133.66,0,0,1-5.9-15.58l.29.1a51.81,51.81,0,0,1-1.78-7.3C49.6,72,49.53,72,49.47,72.12Z"/><path class="cls-10" d="M76.61,18l-.79,2.16a22.7,22.7,0,0,1-6.42,8.87c-13.27,1.81-14.23,6.62-15.74,8.69A34.64,34.64,0,0,0,48.94,48a44.22,44.22,0,0,0-1.28,4.94c-2.84,14.18.52,30.74,10.09,41.8a133.66,133.66,0,0,1-5.9-15.58,2.14,2.14,0,0,0,1.27.14c1.53-.33,2.4-2.37,1.94-4.57S53,71,51.44,71.3a2.21,2.21,0,0,0-1.27.82c-1.62-9.09-.93-18.07,3.22-26.67a33.36,33.36,0,0,1,2-4.05,11.25,11.25,0,0,1,2.42-2.94c1.63-1.18,3.67-.89,5.4-1.79a4.44,4.44,0,0,0,2.55-3,15.4,15.4,0,0,0,4.54-3.24A44.71,44.71,0,0,0,79.23,19.6C77.77,18.65,76.61,18,76.61,18Z"/><path class="cls-9" d="M76.61,18s8.45,4.59,8.69,7.76l-10,8.31s1.51,6-2.13,17.71-3.66,17.12-1,21.48,13.05,20.79,10.1,29.92c-1.21,3.75-3.09,5.07-5.28,5.07-3.14,0-6.92-2.7-10.25-4.77C61.11,100,50,86.14,47.22,69.61s4.94-29.81,6.44-31.87,2.47-6.88,15.74-8.69a22.7,22.7,0,0,0,6.42-8.87L76.61,18m0-2.45a2.34,2.34,0,0,0-.86.16,2.45,2.45,0,0,0-1.44,1.45l-.79,2.15a20.05,20.05,0,0,1-5.18,7.4c-11.1,1.65-14.18,5.4-16.18,8.8-.19.31-.35.58-.48.76A49.07,49.07,0,0,0,44.81,70c3,18,14.95,32,20.68,35.57l1.35.85c3.32,2.1,6.76,4.28,10.19,4.28,2.47,0,5.81-1.18,7.61-6.77,2.2-6.8-1.16-17.21-10.25-31.81l-.1-.16c-2-3.28-2.49-7.51,1.21-19.46,2.77-8.89,2.69-14.78,2.41-17.43l9-7.42a2.47,2.47,0,0,0,.87-2.08c-.31-4.05-7.07-8.15-9.95-9.72a2.46,2.46,0,0,0-1.18-.3Z"/><path class="cls-11" d="M73.16,51.8c3.64-11.7,2.13-17.71,2.13-17.71l10-8.31a3.5,3.5,0,0,0-.74-1.69c-2.43,2.1-5.42,3.74-8,5.71-9,6.89-13.22,18.81-12.52,30.11s5.83,22,12.67,31c1.9,2.5,3.94,4.89,6.06,7.2-.76-9.18-8.3-21.17-10.56-24.8C69.5,68.92,69.53,63.5,73.16,51.8Z"/><path class="cls-9" d="M64.69,61.27A.65.65,0,0,1,65,61.1a4.24,4.24,0,0,1,.61-.17.81.81,0,0,1,.86.3A2.88,2.88,0,0,1,64.8,64.8a.88.88,0,0,1-.76-.26.62.62,0,0,1-.13-.65.51.51,0,0,0-.18-.67.5.5,0,0,0-.68.17,1.68,1.68,0,0,0,.68,2.16,2.24,2.24,0,0,0,2.56-.41,4.74,4.74,0,0,0,1.34-2.46,2.34,2.34,0,0,0-.86-2.51A2,2,0,0,0,65.15,60a2.25,2.25,0,0,0-1.32.74.5.5,0,0,0,.86.5Z"/><path class="cls-9" d="M50.44,64.43A27.59,27.59,0,0,0,40.94,63a28.26,28.26,0,0,0-4.68.5A14.63,14.63,0,0,0,32,64.79c-2.79,1.53-2.67,5-.84,7.24a12.75,12.75,0,0,0,3.47,2.62c1.49.89,3,1.69,4.59,2.43a1.58,1.58,0,0,0,2.1-.55,1.55,1.55,0,0,0-.55-2.1,31.51,31.51,0,0,1-6.6-3.73,2.81,2.81,0,0,1-1.31-2.47c.16-.8,1.16-1,1.81-1.21a24.88,24.88,0,0,1,15,.37c1.87.63,2.67-2.33.81-3Z"/><path class="cls-12" d="M75.93,19.63c.41,1.19,1.82,1.72,2.47,2.79a1,1,0,0,1,.16.48,1,1,0,0,1-.21.48L76.79,25.8a8.54,8.54,0,0,1,5.1-1.49,9,9,0,0,1,3.46,1.34,1.44,1.44,0,0,0,.9.29,1.7,1.7,0,0,0-.43-1A28.09,28.09,0,0,0,81.7,20,10.52,10.52,0,0,0,78,17.87c-.43-.14-1.43-.54-1.85-.25S75.76,19.16,75.93,19.63Z"/><path class="cls-4" d="M57,71.26c-1.16-2.4-4.87-1.55-7.36-2-.26-1.09.09-2.15-.1-3.26a4.57,4.57,0,0,0-1.09-2.17c-.7-.76-2.4-1.71-3.49-1.21-1.41.65-1.36,3.58-1.41,4.86a9.37,9.37,0,0,1-.83,4.11l-.28.5c-2.76-.67-3.88,2.91-3.58,5.07.25,1.86,2.49,4.63,4.32,3.17a6.62,6.62,0,0,0,2.87,2c2.73,1,8.06,0,8.5-3.44v0a2.31,2.31,0,0,0,.6-.53,4.28,4.28,0,0,0,.94-3.71A2.76,2.76,0,0,0,57,71.26Z"/><path class="cls-9" d="M53.73,79c-.18,1.82-2.66,2.39-4.13,2.7a5.84,5.84,0,0,1-4.19-.64A6.43,6.43,0,0,1,43,73a10.91,10.91,0,0,0,1.48-3.8c.22-1.66,0-3.36.48-5,.11-.37.19-1,.59-1.08a2.05,2.05,0,0,1,.9.19,3.19,3.19,0,0,1,1.77,1.56c.78,1.44,0,3.09.52,4.62.25.69,1.36.39,1.11-.31-.54-1.51.23-3.09-.48-4.59a4.48,4.48,0,0,0-2.88-2.48,2.62,2.62,0,0,0-1.59,0c-.51.23-.69.83-.87,1.31-.65,1.72-.48,3.49-.64,5.27a7.16,7.16,0,0,1-.69,2.53,17.88,17.88,0,0,0-1,2,8.42,8.42,0,0,0-.15,4.17,7,7,0,0,0,5.61,5.53,9.55,9.55,0,0,0,5.1-.79A3.75,3.75,0,0,0,54.88,79c.08-.73-1.07-.73-1.15,0Z"/><path class="cls-9" d="M47.9,69.59a6.76,6.76,0,0,0,3.44.88,14,14,0,0,1,3.71.3,2.28,2.28,0,0,1,1.35.83,1.55,1.55,0,0,1-.16,1.53,4.07,4.07,0,0,1-.84.92,1.33,1.33,0,0,1-1,.11c-.73-.13-1,1-.31,1.1a2.66,2.66,0,0,0,1.65-.1,3.14,3.14,0,0,0,1-.91,2.92,2.92,0,0,0,.87-1.93A2.27,2.27,0,0,0,57,70.53c-2.4-2.14-6-.32-8.51-1.93-.63-.4-1.21.6-.58,1Z"/><path class="cls-9" d="M55.42,75c0-.06,0,.09,0,0s0,.18,0,.1a1.34,1.34,0,0,1,0,.4,4.43,4.43,0,0,1-.14.81,3.73,3.73,0,0,1-.74,1.49l-.15.16s-.16.14-.09.09a.79.79,0,0,1-.26.13,6.79,6.79,0,0,1-.78.18l-.19,0c-.12,0,.07,0-.06,0l-.26,0a6.32,6.32,0,0,1-.75-.06.59.59,0,0,0-.58.58.59.59,0,0,0,.58.57,4.79,4.79,0,0,0,.85,0,5.08,5.08,0,0,0,.94-.14,3.35,3.35,0,0,0,.93-.29,2.32,2.32,0,0,0,.77-.69,5,5,0,0,0,.95-2,2.58,2.58,0,0,0-.23-2.24.59.59,0,0,0-.82,0,.6.6,0,0,0,0,.82Z"/><path class="cls-9" d="M42.33,72a2.61,2.61,0,0,0-3.08,1.44,6.19,6.19,0,0,0-.71,3.75,4.47,4.47,0,0,0,1.79,3.25,2.29,2.29,0,0,0,3.2-.39c.4-.62-.59-1.2-1-.58s-1.47.16-1.89-.23a3.76,3.76,0,0,1-1-2.45,5,5,0,0,1,.51-2.61c.36-.7,1-1.4,1.87-1.07.69.26,1-.85.3-1.11Z"/><path class="cls-13" d="M43.85,76.72A3.53,3.53,0,0,0,45.6,79.9"/><path class="cls-13" d="M52.51,71.4a3.29,3.29,0,0,1,2.06.36"/><path class="cls-9" d="M63,64a4.86,4.86,0,0,0,.23,2.56.38.38,0,0,0,.46.26.39.39,0,0,0,.26-.46,4.16,4.16,0,0,1-.24-2.17.37.37,0,0,0-.26-.45A.36.36,0,0,0,63,64Z"/><path class="cls-9" d="M64.54,63.12a.82.82,0,0,0-.05.51.54.54,0,0,0,.62.35.75.75,0,0,0,.53-.53,1.11,1.11,0,0,0-.09-.76,1.4,1.4,0,0,1-.14-.39c0-.22.36-.6.24-.76a2,2,0,0,0-.65.69A3.59,3.59,0,0,0,64.54,63.12Z"/><path class="cls-9" d="M63.42,68.07a2.88,2.88,0,0,0,1.51.1.37.37,0,1,0-.2-.71l-.14,0h.1a2.91,2.91,0,0,1-.66,0l.1,0a2.93,2.93,0,0,1-.51-.13.39.39,0,0,0-.46.26.4.4,0,0,0,.26.46Z"/><path class="cls-9" d="M68.83,61a1.79,1.79,0,0,1,.25-.23l0,0,0,0,.07,0,.15-.09.08,0,0,0c-.06,0,0,0,0,0l.08,0a2.09,2.09,0,0,1,.34-.08l-.1,0h.09a.38.38,0,0,0,.37-.38c0-.18-.17-.39-.37-.37a2.43,2.43,0,0,0-1.57.77.37.37,0,1,0,.52.52Z"/><path class="cls-9" d="M68.85,63.05,70,62.9a.34.34,0,0,0,.22-.17.37.37,0,0,0-.13-.51l-.09,0h-.2l-1.15.16a.37.37,0,0,0-.22.17.39.39,0,0,0,0,.28.36.36,0,0,0,.17.23l.08,0a.34.34,0,0,0,.2,0Z"/><path class="cls-9" d="M68.76,65.21h0l-.09,0a2.62,2.62,0,0,1,.51.3l-.08-.06a1.93,1.93,0,0,1,.33.31.36.36,0,0,0,.26.11.41.41,0,0,0,.26-.11.39.39,0,0,0,.11-.27A.38.38,0,0,0,70,65.2a2.59,2.59,0,0,0-.46-.41A2.89,2.89,0,0,0,69,64.5a.31.31,0,0,0-.28,0,.36.36,0,0,0-.18.22.39.39,0,0,0,0,.28l.06.08a.37.37,0,0,0,.16.09Z"/><path class="cls-9" d="M64.49,59.72l.1,0-.09,0a1.4,1.4,0,0,1,.39-.1H65a.44.44,0,0,0,.26-.11.35.35,0,0,0,.11-.27.34.34,0,0,0-.11-.26.41.41,0,0,0-.26-.11,2,2,0,0,0-.87.22.37.37,0,0,0-.17.22.37.37,0,0,0,0,.29.37.37,0,0,0,.51.13Z"/><path class="cls-4" d="M75.46,50.78c-.73,3.22-2.82,5.49-4.65,5.07s-2.74-3.36-2-6.58,2.81-5.5,4.65-5.08S76.19,47.56,75.46,50.78Z"/><path class="cls-9" d="M73,44.14a2.12,2.12,0,0,1,.44,0c1.84.42,2.74,3.37,2,6.59-.68,3-2.49,5.12-4.21,5.12a1.61,1.61,0,0,1-.44,0c-1.84-.41-2.74-3.36-2-6.58.67-3,2.49-5.13,4.21-5.13m0-1.53h0c-2.51,0-4.86,2.6-5.7,6.32-1,4.18.41,7.8,3.16,8.42a3.39,3.39,0,0,0,.78.09c2.51,0,4.86-2.6,5.7-6.32,1-4.18-.41-7.8-3.16-8.42a3.39,3.39,0,0,0-.78-.09Z"/><path class="cls-9" d="M74.44,50.73c-.86,2.33-2.57,3.85-3.83,3.39S69,51.4,69.88,49.06s2.56-3.85,3.82-3.39S75.29,48.4,74.44,50.73Z"/><path class="cls-4" d="M74.83,47.48c-.33.91-1,1.51-1.51,1.33s-.66-1.06-.34-2,1-1.51,1.5-1.33S75.15,46.56,74.83,47.48Z"/><path class="cls-9" d="M68.8,57.82c.31,0,.61-.06.92-.07h.52l.26,0,.38.11c-.16-.06.06,0,.09,0l.2.13c-.11-.07,0,0,0,0l.13.13.08.1c-.06-.08-.06-.08,0,0s.07.1.1.16a1.19,1.19,0,0,1,.08.16c-.08-.16,0,0,0,.08l.06.21s0,.22,0,0c0,.15,0,.29,0,.44,0-.14,0,0,0,0s0,.12,0,.18a1.17,1.17,0,0,1,0,.11c0-.07,0-.09,0,0a1.86,1.86,0,0,1-.1.2l-.1.15c-.09.15.08-.07,0,0s-.2.21-.31.3c.14-.11,0,0,0,0a.94.94,0,0,1-.22.12.78.78,0,0,0-.27,1.05.79.79,0,0,0,1,.28,3.12,3.12,0,0,0,1.51-1.78,2.94,2.94,0,0,0-2-3.74,5.57,5.57,0,0,0-2.3-.1.79.79,0,0,0-.77.77c0,.37.34.81.77.76Z"/><path class="cls-9" d="M60.67,39.26a8.71,8.71,0,0,1,.85-.2c.25,0,.09,0-.05,0l.21,0a3.54,3.54,0,0,1,.46,0c.29,0,.59.06.88,0-.08,0-.31,0-.1,0l.25,0a3.69,3.69,0,0,1,.45.11,2.64,2.64,0,0,1,.4.12l.24.08s.27.11.06,0,0,0,.05,0l.23.11a3.07,3.07,0,0,1,.36.2l.4.25.16.12c.16.1-.24-.21,0,0a8.07,8.07,0,0,1,.67.64,1.55,1.55,0,0,0,2.17,0,1.57,1.57,0,0,0,0-2.17,8.41,8.41,0,0,0-8.48-2.29,1.53,1.53,0,0,0,.81,2.95Z"/><path class="cls-9" d="M74.34,40.53l-.09,0,.19-.07a2.65,2.65,0,0,1,.37-.12l.39-.1c.07,0,.33,0,.38-.07h-.11l.2,0h.39a6,6,0,0,1,.74,0c.4,0-.27-.05,0,0l.39.07a6.61,6.61,0,0,1,.76.22l.18.07c.16.06.13.05-.09,0l.36.17a6.68,6.68,0,0,1,.67.41,1.54,1.54,0,0,0,2.1-.55,1.57,1.57,0,0,0-.55-2.09,8,8,0,0,0-7.86-.6,1.53,1.53,0,0,0-.55,2.1,1.57,1.57,0,0,0,2.09.55Z"/><path class="cls-4" d="M64.14,49.44c-.73,3.22-2.81,5.49-4.65,5.08s-2.73-3.37-2-6.59,2.81-5.49,4.65-5.08S64.87,46.22,64.14,49.44Z"/><path class="cls-9" d="M61.7,42.81a2.25,2.25,0,0,1,.44,0c1.84.42,2.73,3.37,2,6.59-.67,3-2.49,5.13-4.2,5.13a2.3,2.3,0,0,1-.45,0c-1.83-.42-2.73-3.37-2-6.59.67-3,2.49-5.12,4.21-5.12m0-1.54h0c-2.52,0-4.86,2.6-5.71,6.32a10.29,10.29,0,0,0,.07,5.13A4.44,4.44,0,0,0,59.15,56a3.48,3.48,0,0,0,.79.09c2.51,0,4.85-2.6,5.7-6.32,1-4.18-.41-7.8-3.16-8.42a3.46,3.46,0,0,0-.78-.09Z"/><path class="cls-9" d="M62.81,48.86C62,51.19,60.24,52.71,59,52.25s-1.59-2.72-.74-5.06,2.56-3.85,3.82-3.39S63.66,46.53,62.81,48.86Z"/><path class="cls-9" d="M55.84,56.76a6.26,6.26,0,0,1,2.84-.24,1.92,1.92,0,0,1,1.48,1.27,2.28,2.28,0,0,1-.21,2,3.37,3.37,0,0,1-1.62,1.39.77.77,0,0,0,.41,1.48,4.63,4.63,0,0,0,3.07-3.85A3.55,3.55,0,0,0,58.9,55a8.33,8.33,0,0,0-3.47.29c-1,.22-.55,1.7.41,1.47Z"/><path class="cls-4" d="M63.2,45.77c-.32.92-1,1.51-1.51,1.34s-.66-1.07-.34-2,1-1.51,1.5-1.33S63.52,44.85,63.2,45.77Z"/></g></g></g></g></svg>