<svg xmlns="http://www.w3.org/2000/svg" viewBox="0 0 39.8 32.47"><defs><style>.cls-1{fill:currentColor;}</style></defs><g id="Capa_2" data-name="Capa 2"><g id="Capa_1-2" data-name="Capa 1"><g id="line_icons" data-name="line icons"><path class="cls-1" d="M36.7,32.47H3.1A3.1,3.1,0,0,1,0,29.37V7.15A3.12,3.12,0,0,1,3.1,4H14.8a.57.57,0,0,1,.57.57.56.56,0,0,1-.57.57H3.1a2,2,0,0,0-2,2V29.37a2,2,0,0,0,2,2H36.7a2,2,0,0,0,2-2V7.15a2,2,0,0,0-2-2H25a.57.57,0,0,1-.57-.57A.58.58,0,0,1,25,4H36.7a3.11,3.11,0,0,1,3.1,3.11V29.37A3.1,3.1,0,0,1,36.7,32.47Z"/><path class="cls-1" d="M24.22,7.37H15.59A1.35,1.35,0,0,1,14.24,6V1.35A1.35,1.35,0,0,1,15.59,0h8.63a1.36,1.36,0,0,1,1.35,1.35V6A1.36,1.36,0,0,1,24.22,7.37ZM15.59,1.14a.21.21,0,0,0-.22.21V6a.21.21,0,0,0,.22.21h8.63A.21.21,0,0,0,24.43,6V1.35a.21.21,0,0,0-.21-.21Z"/><path class="cls-1" d="M10.84,16.39a3.49,3.49,0,1,1,3.48-3.49A3.49,3.49,0,0,1,10.84,16.39Zm0-5.83a2.35,2.35,0,1,0,2.34,2.34h0A2.34,2.34,0,0,0,10.84,10.56Z"/><path class="cls-1" d="M17,22.36H4.7a.58.58,0,0,1-.57-.57v0a6.71,6.71,0,0,1,13.41,0,.57.57,0,0,1-.55.59ZM5.31,21.22H16.36a5.57,5.57,0,0,0-11,0Z"/><path class="cls-1" d="M35.1,11.33H22.55a.57.57,0,0,1-.57-.57.58.58,0,0,1,.57-.57H35.1a.58.58,0,0,1,.57.57A.57.57,0,0,1,35.1,11.33Z"/><path class="cls-1" d="M35.1,16.59H22.55A.58.58,0,0,1,22,16a.57.57,0,0,1,.57-.57H35.1a.57.57,0,0,1,.57.57A.58.58,0,0,1,35.1,16.59Z"/><path class="cls-1" d="M35.1,21.84H22.55a.57.57,0,0,1-.57-.57.58.58,0,0,1,.57-.57H35.1a.58.58,0,0,1,.57.57A.57.57,0,0,1,35.1,21.84Z"/><path class="cls-1" d="M35.1,27.1H4.7a.58.58,0,0,1-.57-.57A.57.57,0,0,1,4.7,26H35.1a.57.57,0,0,1,.57.57A.58.58,0,0,1,35.1,27.1Z"/></g></g></g></svg>