<svg xmlns="http://www.w3.org/2000/svg" viewBox="0 0 62.14 70.1"><defs><style>.cls-1{fill:currentColor;}</style></defs><g id="Capa_2" data-name="Capa 2"><g id="Capa_1-2" data-name="Capa 1"><path class="cls-1" d="M62.1,66.52,59,48.37a5.16,5.16,0,0,0-3.62-4.1L47,41.74a9.31,9.31,0,0,0-6.46-8.11c.27-.29.51-.59.74-.87a16.21,16.21,0,0,0,3.33-7.21h.65a3,3,0,0,0,3-3V21a3.05,3.05,0,0,0-1.57-2.66V14.54a1,1,0,1,0-2.05,0v4.21a5.65,5.65,0,0,0-1.37.39l-.14.06-.33.17V11.1A4.15,4.15,0,0,0,38.75,7H35.92a4.31,4.31,0,0,0-2.69,1L33,8.13a2.78,2.78,0,0,1-1.81.64,2.92,2.92,0,0,1-1.82-.64L29,7.9a4.21,4.21,0,0,0-2.68-1H23.53a4.15,4.15,0,0,0-4.15,4.14v8.27L19,19.18l-.14-.07a6.81,6.81,0,0,0-1.37-.4V8.07a6,6,0,0,1,6-6l15.13,0a6,6,0,0,1,6,6V9.71a1,1,0,0,0,2.05,0V8.1A8.07,8.07,0,0,0,38.71,0L23.58,0a8.08,8.08,0,0,0-8.09,8.07V18.25a3.06,3.06,0,0,0-1.58,2.66v1.56a3.05,3.05,0,0,0,3,3.05h.64a16.26,16.26,0,0,0,3.32,7.22c.22.28.47.57.73.87a9.36,9.36,0,0,0-6.48,8.09L6.79,44.21a5.18,5.18,0,0,0-3.63,4.1L1.9,55.67a1,1,0,1,0,2,.35l1.27-7.37a3.1,3.1,0,0,1,2.19-2.47l7.73-2.33v2A5.1,5.1,0,0,0,10.9,50.5l-.76,9.59a2.64,2.64,0,0,0,.69,2,2.6,2.6,0,0,0,1.91.84H14a1,1,0,1,0,0-2H12.74a.58.58,0,0,1-.41-.17.6.6,0,0,1-.14-.43L13,50.66a3,3,0,0,1,.18-.84,3.1,3.1,0,0,1,2.91-2h.19a3.09,3.09,0,0,1,2.86,1.85,2.77,2.77,0,0,1,.24,1l.74,9.59a.53.53,0,0,1-.15.42.52.52,0,0,1-.41.18H18.24a1,1,0,0,0,0,2h1.28a2.6,2.6,0,0,0,2.61-2.8l-.74-9.6a5.1,5.1,0,0,0-4.22-4.63V43.24l3.53-1.06c.32.67.95,2.13,2.21,5.28s2.83,7.25,4.34,11.21a1,1,0,0,0,0,.1c1,2.65,2,5.23,2.82,7.47a1,1,0,0,0,1,.67,1,1,0,0,0,1-.67c.84-2.23,1.82-4.82,2.84-7.46l0-.1c1.52-4,3.1-8,4.37-11.19s1.91-4.61,2.23-5.29L45,43.27v6.06a5.3,5.3,0,1,0,2,0V43.89l7.73,2.34A3.13,3.13,0,0,1,57,48.71l3.08,18.15a1,1,0,0,1-1,1.19L3.07,68a1,1,0,0,1-.78-.37,1,1,0,0,1-.22-.82l1-6a1,1,0,0,0-2-.35l-1,6A3.11,3.11,0,0,0,.72,69,3.08,3.08,0,0,0,3.07,70l56,.06a3.08,3.08,0,0,0,3-3.58ZM44.73,20.84a4.33,4.33,0,0,1,1-.14,1,1,0,0,0,.5-.12,1.16,1.16,0,0,1,.07.37v1.56a1,1,0,0,1-1,1h-.58V20.84ZM17.51,23.47h-.57a1,1,0,0,1-1-1V20.91a.9.9,0,0,1,.08-.36,1.06,1.06,0,0,0,.5.12,4.46,4.46,0,0,1,1,.14v2.66Zm2,1.15v-2.7a1.38,1.38,0,0,0,1-.05,1.43,1.43,0,0,0,.89-1.33V11.07A2.1,2.1,0,0,1,23.52,9h2.84a2.23,2.23,0,0,1,1.38.49l.28.23a4.92,4.92,0,0,0,3.11,1.12,5,5,0,0,0,3.12-1.11l.28-.23A2.18,2.18,0,0,1,35.91,9h2.84a2.08,2.08,0,0,1,2.08,2.1v9.47a1.45,1.45,0,0,0,.89,1.33,1.54,1.54,0,0,0,.55.11,1.4,1.4,0,0,0,.41-.06v2.69a13.28,13.28,0,0,1-3,6.85,13.83,13.83,0,0,1-2.46,2.43l-.1.07a10,10,0,0,1-12.09,0L25,33.91a13.54,13.54,0,0,1-2.46-2.44A13.33,13.33,0,0,1,19.56,24.62ZM37.82,41.21l-6.73,5-6.71-5a4.9,4.9,0,0,0,1-2.9V36.64a12.05,12.05,0,0,0,11.37,0v1.66A4.81,4.81,0,0,0,37.82,41.21ZM22.67,40.05A2.84,2.84,0,0,0,20.94,40l-.08,0-3.54,1.07a7.28,7.28,0,0,1,6.05-5.74v3A2.71,2.71,0,0,1,22.67,40.05Zm2.77,8.24h0c-.06-.13-.11-.26-.16-.39l0-.07c-.05-.13-.09-.25-.14-.37v0l-.44-1.1,0-.08-.12-.3,0-.1-.12-.28,0-.09c-.07-.16-.14-.33-.2-.49l-.05-.13L24,44.67a1.67,1.67,0,0,0-.08-.2l0-.07,0,0-.34-.82h0l-.17-.39-.08-.19,5.78,4.32-2.42,1h0l-1,.43C25.55,48.57,25.5,48.43,25.44,48.29Zm2.44,6.29c-.2-.53-.4-1.06-.61-1.59l-.91-2.36.38-.16,1.56,1.82Zm3.21,8.34a1,1,0,0,0-.1-.17c-.46-1.23-1-2.78-1.7-4.49l1-5.24h1.67l.95,5.25C32.18,60.05,31.57,61.67,31.09,62.92ZM32.3,51H29.87l-1.15-1.34,2.37-1,2.36,1Zm2.6,2c-.21.53-.41,1.06-.62,1.58l-.41-2.28,1.57-1.82.38.16Zm3.94-9.85c-.05.12-.11.24-.16.37l0,0L38.5,44l0,0c0,.12-.09.24-.14.36l0,.07,0,.08-.07.17-.08.21,0,.06c-.07.18-.14.36-.22.54l0,.09-.12.28,0,.11-.12.3,0,.08c-.13.35-.28.71-.43,1.08v0l-.15.37,0,.07c0,.13-.1.26-.16.39h0c-.05.14-.11.29-.17.43l-1-.43h0l-2.41-1L38.92,43ZM41.34,40h0a2.78,2.78,0,0,0-1.8.06,2.67,2.67,0,0,1-.69-1.76v-3a7.25,7.25,0,0,1,6,5.76Zm7.94,14.53A3.26,3.26,0,1,1,46,51.28,3.26,3.26,0,0,1,49.28,54.54Z"/></g></g></svg>