<svg xmlns="http://www.w3.org/2000/svg" viewBox="0 0 52.73 69.81"><defs><style>.cls-1{fill:currentColor;}</style></defs><g id="Capa_2" data-name="Capa 2"><g id="Capa_1-2" data-name="Capa 1"><path class="cls-1" d="M49,0H12.08a1,1,0,1,0,0,2.05H49a1.73,1.73,0,0,1,1.74,1.73v9.44H2.05V3.78A1.72,1.72,0,0,1,3.78,2.05H7.3a1,1,0,1,0,0-2H3.78A3.78,3.78,0,0,0,0,3.78V56.23a1,1,0,0,0,2.05,0v-41H50.69v6.15a1,1,0,1,0,2,0V3.78A3.78,3.78,0,0,0,49,0Z"/><path class="cls-1" d="M51.71,25.17a1,1,0,0,0-1,1V66A1.74,1.74,0,0,1,49,67.77H3.78A1.73,1.73,0,0,1,2.05,66V61a1,1,0,0,0-1-1,1,1,0,0,0-1,1v5a3.78,3.78,0,0,0,3.78,3.78H49A3.78,3.78,0,0,0,52.73,66V26.2A1,1,0,0,0,51.71,25.17Z"/><path class="cls-1" d="M48.32,7.63a3.23,3.23,0,1,0-3.22,3.23A3.22,3.22,0,0,0,48.32,7.63Zm-4.4,0A1.18,1.18,0,1,1,45.1,8.81,1.18,1.18,0,0,1,43.92,7.63Z"/><path class="cls-1" d="M39.51,7.63a3.23,3.23,0,1,0-3.23,3.23A3.23,3.23,0,0,0,39.51,7.63Zm-4.41,0a1.18,1.18,0,1,1,1.18,1.18A1.18,1.18,0,0,1,35.1,7.63Z"/><path class="cls-1" d="M46.34,20.38H29.53a1,1,0,0,0,0,2.05H46.34a1,1,0,0,0,0-2.05Z"/><path class="cls-1" d="M21,22.43h4.14a1,1,0,0,0,0-2.05H21a1,1,0,0,0,0,2.05Z"/><path class="cls-1" d="M21,26.84H36.83a1,1,0,1,0,0-2.05H21a1,1,0,0,0,0,2.05Z"/><path class="cls-1" d="M44.27,26.84a1,1,0,0,0,0-2.05h-3a1,1,0,0,0,0,2.05Z"/><path class="cls-1" d="M21,31.24H32a1,1,0,1,0,0-2H21a1,1,0,1,0,0,2Z"/><path class="cls-1" d="M9.15,31.24h3.3a3.77,3.77,0,0,0,3.78-3.77V24.16a3.78,3.78,0,0,0-3.78-3.78H9.15a3.79,3.79,0,0,0-3.78,3.78v3.31A3.78,3.78,0,0,0,9.15,31.24ZM7.42,24.16a1.73,1.73,0,0,1,1.73-1.73h3.3a1.74,1.74,0,0,1,1.74,1.73v3.31a1.74,1.74,0,0,1-1.74,1.73H9.15a1.73,1.73,0,0,1-1.73-1.73Z"/><path class="cls-1" d="M46.34,36.09H29.53a1,1,0,1,0,0,2H46.34a1,1,0,0,0,0-2Z"/><path class="cls-1" d="M21,38.13h4.14a1,1,0,1,0,0-2H21a1,1,0,1,0,0,2Z"/><path class="cls-1" d="M21,42.54H36.83a1,1,0,1,0,0-2H21a1,1,0,0,0,0,2Z"/><path class="cls-1" d="M44.27,42.54a1,1,0,0,0,0-2h-3a1,1,0,0,0,0,2Z"/><path class="cls-1" d="M21,47H32a1,1,0,1,0,0-2.05H21A1,1,0,0,0,21,47Z"/><path class="cls-1" d="M5.37,43.17A3.79,3.79,0,0,0,9.15,47h3.3a3.78,3.78,0,0,0,3.78-3.78V39.86a3.77,3.77,0,0,0-3.78-3.77H9.15a3.78,3.78,0,0,0-3.78,3.77Zm2.05-3.31a1.73,1.73,0,0,1,1.73-1.73h3.3a1.74,1.74,0,0,1,1.74,1.73v3.31a1.74,1.74,0,0,1-1.74,1.73H9.15a1.73,1.73,0,0,1-1.73-1.73Z"/><path class="cls-1" d="M47.36,52.81a1,1,0,0,0-1-1H29.53a1,1,0,0,0,0,2H46.34A1,1,0,0,0,47.36,52.81Z"/><path class="cls-1" d="M21,53.83h4.14a1,1,0,0,0,0-2H21a1,1,0,0,0,0,2Z"/><path class="cls-1" d="M21,58.24H36.83a1,1,0,1,0,0-2H21a1,1,0,1,0,0,2Z"/><path class="cls-1" d="M41.24,56.2a1,1,0,1,0,0,2h3a1,1,0,0,0,0-2Z"/><path class="cls-1" d="M21,62.65H32a1,1,0,1,0,0-2H21a1,1,0,0,0,0,2Z"/><path class="cls-1" d="M5.37,58.87a3.79,3.79,0,0,0,3.78,3.78h3.3a3.78,3.78,0,0,0,3.78-3.78v-3.3a3.78,3.78,0,0,0-3.78-3.78H9.15a3.78,3.78,0,0,0-3.78,3.78Zm2.05-3.3a1.73,1.73,0,0,1,1.73-1.74h3.3a1.74,1.74,0,0,1,1.74,1.74v3.3a1.73,1.73,0,0,1-1.74,1.73H9.15a1.72,1.72,0,0,1-1.73-1.73Z"/></g></g></svg>