<svg xmlns="http://www.w3.org/2000/svg" viewBox="0 0 29.99 29.99"><defs><style>.cls-1{fill:currentColor;fill-rule:evenodd;}</style></defs><g id="Capa_2" data-name="Capa 2"><g id="Capa_1-2" data-name="Capa 1"><path class="cls-1" d="M15,1.8A13.2,13.2,0,1,0,28.19,15,13.2,13.2,0,0,0,15,1.8ZM15,0A15,15,0,1,0,30,15,15,15,0,0,0,15,0Zm2.74,22H11.59A4.06,4.06,0,0,1,7.53,17.9V11.76A4.06,4.06,0,0,1,11.59,7.7h6.14a4.06,4.06,0,0,1,4.06,4.06V17.9A4.06,4.06,0,0,1,17.73,22Zm-6.14-13a2.84,2.84,0,0,0-2.84,2.84V17.9a2.84,2.84,0,0,0,2.84,2.84h6.14a2.84,2.84,0,0,0,2.84-2.84V11.76a2.84,2.84,0,0,0-2.84-2.84Zm3.07,9.56a3.65,3.65,0,1,1,3.65-3.65A3.65,3.65,0,0,1,14.66,18.48Zm0-6.08a2.43,2.43,0,1,0,2.43,2.43A2.43,2.43,0,0,0,14.66,12.4ZM19.35,11a.88.88,0,1,1-.88-.88A.88.88,0,0,1,19.35,11Z"/></g></g></svg>