<svg xmlns="http://www.w3.org/2000/svg" viewBox="0 0 42.32 30.67"><defs><style>.cls-1{fill:currentColor;}</style></defs><g id="Capa_2" data-name="Capa 2"><g id="Capa_1-2" data-name="Capa 1"><path class="cls-1" d="M41.69,25H39.47V2.54A2.54,2.54,0,0,0,36.93,0H5.18A2.54,2.54,0,0,0,2.65,2.54V25h-2a.63.63,0,0,0-.63.63V27a3.64,3.64,0,0,0,3.64,3.64H27.32a.63.63,0,0,0,0-1.26H3.64A2.38,2.38,0,0,1,1.26,27v-.76H16.07a2.25,2.25,0,0,0,2.24,2.2H24a2.25,2.25,0,0,0,2.24-2.2H41.06V27a2.39,2.39,0,0,1-2.38,2.38H30.25a.63.63,0,0,0,0,1.26h8.43A3.64,3.64,0,0,0,42.32,27V25.64A.63.63,0,0,0,41.69,25ZM24,27.21h-5.7a1,1,0,0,1-1-.94H25A1,1,0,0,1,24,27.21ZM38.21,25H3.9V2.54A1.28,1.28,0,0,1,5.18,1.26H36.93a1.28,1.28,0,0,1,1.28,1.28Z"/><path class="cls-1" d="M36.5,2.35H12.15a.63.63,0,1,0,0,1.25H35.87V22.66H6.25V3.6h3a.63.63,0,1,0,0-1.25H5.62A.63.63,0,0,0,5,3V23.29a.63.63,0,0,0,.63.63H36.5a.63.63,0,0,0,.63-.63V3A.63.63,0,0,0,36.5,2.35Z"/></g></g></svg>