<svg xmlns="http://www.w3.org/2000/svg" viewBox="0 0 67.17 67.17"><defs><style>.cls-1{fill:currentColor;}</style></defs><g id="Capa_2" data-name="Capa 2"><g id="Capa_1-2" data-name="Capa 1"><path class="cls-1" d="M57.34,9.84a33.58,33.58,0,0,0-47.5,0A33.58,33.58,0,0,0,33.59,67.17,33.59,33.59,0,0,0,57.34,9.84ZM33.59,63.24A29.65,29.65,0,1,1,63.24,33.59,29.68,29.68,0,0,1,33.59,63.24Z"/><path class="cls-1" d="M35.69,31.62H31.48a4.36,4.36,0,1,1,0-8.71h8.43a2,2,0,1,0,0-3.94H35.55V14.62a2,2,0,1,0-3.93,0V19h-.14a8.29,8.29,0,0,0,0,16.58h4.21a4.36,4.36,0,0,1,0,8.72H27.26a2,2,0,1,0,0,3.93h4.36v4.36a2,2,0,1,0,3.93,0V48.2h.14a8.29,8.29,0,1,0,0-16.58Z"/></g></g></svg>