<svg xmlns="http://www.w3.org/2000/svg" xmlns:xlink="http://www.w3.org/1999/xlink" viewBox="0 0 632.02 426.65"><defs><style>.cls-1,.cls-7{fill:#fff;}.cls-1{stroke:#310086;stroke-width:5px;}.cls-1,.cls-24,.cls-25,.cls-29,.cls-3,.cls-30,.cls-34,.cls-35,.cls-37,.cls-46,.cls-47,.cls-50,.cls-53,.cls-54,.cls-55,.cls-68,.cls-72,.cls-73,.cls-74,.cls-75{stroke-miterlimit:10;}.cls-2{fill:#c9888f;}.cls-24,.cls-25,.cls-29,.cls-3,.cls-30,.cls-35,.cls-37,.cls-46,.cls-47,.cls-50,.cls-53,.cls-54,.cls-55,.cls-68,.cls-72,.cls-73,.cls-74,.cls-75{fill:none;}.cls-3{stroke:#eec1b2;}.cls-24,.cls-25,.cls-29,.cls-3,.cls-30,.cls-34,.cls-35,.cls-37,.cls-46,.cls-47,.cls-50,.cls-53,.cls-55,.cls-68,.cls-72,.cls-73,.cls-74{stroke-linecap:round;}.cls-4{fill:#eec1b2;}.cls-5{fill:#c99389;}.cls-6{fill:#f8d6c8;}.cls-8{fill:#ebc8cf;}.cls-9{fill:#97b5d0;}.cls-10{fill:#b06d78;}.cls-11{fill:#ff9d00;}.cls-12{fill:#275482;}.cls-13{fill:#3e76a4;}.cls-14{fill:#863307;}.cls-15{fill:#712006;}.cls-16{fill:#5f2005;}.cls-17{fill:#e6f2ff;}.cls-18,.cls-34{fill:#f8af88;}.cls-19{fill:#ea856c;}.cls-20{fill:#c71d1d;}.cls-21{fill:#041f33;}.cls-22{fill:#e33321;}.cls-23{fill:#0a2a3e;}.cls-24{stroke:#76f214;}.cls-25{stroke:#20657c;}.cls-26{fill:#783109;}.cls-27{fill:#945013;}.cls-28{fill:#23263c;}.cls-29{stroke:#783109;}.cls-29,.cls-30,.cls-46,.cls-47,.cls-72,.cls-73{stroke-width:2px;}.cls-30,.cls-34{stroke:#c8483d;}.cls-31{fill:#d3251e;}.cls-32{fill:#122939;}.cls-33{fill:#a7141a;}.cls-35{stroke:#a7141a;}.cls-36{fill:#fbaf8a;}.cls-37,.cls-47{stroke:#9f3d3a;}.cls-37,.cls-50,.cls-68{stroke-width:0.5px;}.cls-38{fill:#26506f;}.cls-39{fill:#33697e;}.cls-40{fill:#3e1905;}.cls-41{fill:#714119;}.cls-42{fill:#0f2035;}.cls-43{fill:#122c39;}.cls-44{fill:#3c7082;}.cls-45{fill:#573114;}.cls-46{stroke:#3e1905;}.cls-48{fill:#222b4b;}.cls-49{fill:#45bddd;}.cls-50{stroke:#316977;}.cls-51{fill:#8ce8e1;}.cls-52{fill:#d2e2f5;}.cls-53{stroke:#aabbdc;}.cls-54,.cls-55{stroke:#122939;}.cls-56{fill:#2a1509;}.cls-57{fill:#d17a50;}.cls-58{fill:#1d8ea4;}.cls-59{fill:#a12c2a;}.cls-60{fill:#557997;}.cls-61{fill:#0b566a;}.cls-62{fill:#c2593a;}.cls-63{fill:#11819f;}.cls-64{fill:#16acd4;}.cls-65{fill:#145982;}.cls-66{fill:#cb7648;}.cls-67{fill:#1b1014;}.cls-68,.cls-73{stroke:#963430;}.cls-69{fill:#311b09;}.cls-70{fill:#523312;}.cls-71{fill:#311702;}.cls-72{stroke:#311b09;}.cls-74{stroke:#fff;}.cls-75{stroke:url(#Degradado_sin_nombre_6);}.cls-76{fill:#eedddf;}</style><linearGradient id="Degradado_sin_nombre_6" x1="333.17" y1="49.14" x2="371.58" y2="49.14" gradientUnits="userSpaceOnUse"><stop offset="0" stop-color="#76f214"/><stop offset="1" stop-color="#16acd4"/></linearGradient></defs><g id="Capa_2" data-name="Capa 2"><g id="Capa_1-2" data-name="Capa 1"><path class="cls-1" d="M164,408.42c90.67,22.75,238.89,25.29,338.93-22.6C595.36,341.59,614.38,179,551,86.73,505.89,21.18,419.54-5,336.74,4.32c-97.7,11-123.62,78.52-188.45,127.06C108,161.58,25.56,154.15,10,242.27-7.72,342.7,101.42,392.71,164,408.42Z"/><path class="cls-2" d="M481.26,406c11.63-201.76,99.39-226.6,113.17-209.62C623.3,231.93,523.06,343.26,481.26,406Z"/><path class="cls-3" d="M584.87,204.35a472.73,472.73,0,0,0-101.23,200"/><path class="cls-3" d="M559,206.08a88.46,88.46,0,0,1,4.6,26.24,145.76,145.76,0,0,1,28.55-3.25"/><path class="cls-3" d="M525.2,241.05a111.54,111.54,0,0,1,12,30.78,155.76,155.76,0,0,1,34-3.45"/><path class="cls-3" d="M501.92,291.76a147.23,147.23,0,0,1,11.85,22.72,85.11,85.11,0,0,1,34.11-6.15"/><path class="cls-3" d="M523.89,340.44A72.33,72.33,0,0,0,502.73,342a68,68,0,0,0-7.59-16.24"/><path class="cls-2" d="M481.26,406c64.5-102.7,146.84-136.54,150.58-99.43C637,358,525.79,391.49,481.26,406Z"/><path class="cls-3" d="M621.59,310.19a545.88,545.88,0,0,0-138.74,95"/><path class="cls-3" d="M603.34,299.47a86,86,0,0,1-2,21.34,36.63,36.63,0,0,1,19.38,7.91"/><path class="cls-3" d="M569,315.35a107.57,107.57,0,0,1,1.56,22.88,58,58,0,0,1,26.8,9.47"/><path class="cls-3" d="M536.42,339A42.16,42.16,0,0,1,540,357.91,56.83,56.83,0,0,1,565,366"/><rect class="cls-4" x="368.12" y="244.81" width="143" height="15"/><polygon class="cls-4" points="506.9 259.81 506.9 405.99 494.23 405.99 494.23 397.99 384.95 397.99 384.95 405.99 372.33 405.99 372.33 259.81 506.9 259.81"/><rect class="cls-5" x="372.33" y="259.81" width="134.56" height="3"/><rect class="cls-5" x="385.79" y="272.91" width="107.25" height="32.5"/><rect class="cls-6" x="384.69" y="269.91" width="109.45" height="32.5"/><rect class="cls-5" x="385.79" y="313.91" width="107.25" height="32.5"/><rect class="cls-6" x="384.69" y="310.91" width="109.45" height="32.5"/><rect class="cls-5" x="385.79" y="354.91" width="107.25" height="32.5"/><rect class="cls-6" x="384.69" y="351.91" width="109.45" height="32.5"/><path class="cls-7" d="M403.2,237.52V214.77h6.25v22.75a2.75,2.75,0,0,1-2.75,2.75H406A2.75,2.75,0,0,1,403.2,237.52Z"/><path class="cls-7" d="M402.07,214.05h0a.72.72,0,0,1,.72-.72h7.07a.72.72,0,0,1,.72.72h0a.72.72,0,0,1-.72.72h-7.07A.73.73,0,0,1,402.07,214.05Z"/><path class="cls-8" d="M404.2,237.15V222.27h4.25v14.88a2.12,2.12,0,0,1-2.12,2.12h0A2.12,2.12,0,0,1,404.2,237.15Z"/><path class="cls-7" d="M415.7,237.52V214.77H422v22.75a2.75,2.75,0,0,1-2.75,2.75h-.75A2.75,2.75,0,0,1,415.7,237.52Z"/><path class="cls-7" d="M414.57,214.05h0a.72.72,0,0,1,.72-.72h7.07a.72.72,0,0,1,.72.72h0a.72.72,0,0,1-.72.72h-7.07A.73.73,0,0,1,414.57,214.05Z"/><path class="cls-8" d="M416.7,237.15V222.27H421v14.88a2.12,2.12,0,0,1-2.12,2.12h0A2.12,2.12,0,0,1,416.7,237.15Z"/><path class="cls-7" d="M429,237.52V214.77h6.25v22.75a2.75,2.75,0,0,1-2.75,2.75h-.75A2.75,2.75,0,0,1,429,237.52Z"/><path class="cls-7" d="M427.82,214.05h0a.72.72,0,0,1,.72-.72h7.07a.72.72,0,0,1,.72.72h0a.72.72,0,0,1-.72.72h-7.07A.73.73,0,0,1,427.82,214.05Z"/><path class="cls-8" d="M430,237.15V222.27h4.25v14.88a2.12,2.12,0,0,1-2.12,2.12h0A2.12,2.12,0,0,1,430,237.15Z"/><path class="cls-7" d="M442.45,237.52V214.77h6.25v22.75a2.75,2.75,0,0,1-2.75,2.75h-.75A2.75,2.75,0,0,1,442.45,237.52Z"/><path class="cls-7" d="M441.32,214.05h0a.72.72,0,0,1,.72-.72h7.07a.72.72,0,0,1,.72.72h0a.72.72,0,0,1-.72.72H442A.73.73,0,0,1,441.32,214.05Z"/><path class="cls-8" d="M443.45,237.15V222.27h4.25v14.88a2.12,2.12,0,0,1-2.12,2.12h0A2.12,2.12,0,0,1,443.45,237.15Z"/><path class="cls-7" d="M457,237.52V214.77h6.25v22.75a2.75,2.75,0,0,1-2.75,2.75h-.75A2.75,2.75,0,0,1,457,237.52Z"/><path class="cls-7" d="M455.82,214.05h0a.72.72,0,0,1,.72-.72h7.07a.72.72,0,0,1,.72.72h0a.72.72,0,0,1-.72.72h-7.07A.73.73,0,0,1,455.82,214.05Z"/><path class="cls-8" d="M458,237.15V222.27h4.25v14.88a2.12,2.12,0,0,1-2.12,2.12h0A2.12,2.12,0,0,1,458,237.15Z"/><rect class="cls-9" x="397.02" y="216.08" width="77" height="2"/><rect class="cls-2" x="392.99" y="239.81" width="86" height="5"/><rect class="cls-2" x="396.4" y="213.33" width="2.19" height="28.97"/><rect class="cls-2" x="472.71" y="213.33" width="2.19" height="28.97"/><path class="cls-10" d="M82.34,316.32a114.28,114.28,0,0,0,24.16-81.4,113.45,113.45,0,0,0-40.24-75.59,563.86,563.86,0,0,1-2.65,64.06c-2,20.24-5,40.94-.21,60.7A62.14,62.14,0,0,0,82.34,316.32Z"/><path class="cls-3" d="M80.64,342.27c0-71.53,19-94.62-8.83-170.11"/><path class="cls-3" d="M85.05,184.57,79.23,197a30.28,30.28,0,0,0-11.06-3"/><path class="cls-3" d="M65.68,227.6a48.78,48.78,0,0,1,20.93,5.69,67.7,67.7,0,0,1,15-13.66"/><path class="cls-3" d="M64.85,262.3a33.45,33.45,0,0,1,21,5.36,92.68,92.68,0,0,1,20.28-16.17"/><path class="cls-3" d="M68.16,290.89a23.41,23.41,0,0,1,14.49,7.24A62.9,62.9,0,0,1,97,284.05"/><path class="cls-2" d="M95.39,314.14S80,280.45,99.72,243.58c10.9-20.37,34.45-45.16,63.82-65.89,0,0-14,76.1-31.35,107.92C118.81,310.13,95.39,314.14,95.39,314.14Z"/><path class="cls-3" d="M152.91,192.42C122.57,241.16,101,294.34,83.84,349.05"/><path class="cls-3" d="M133.61,204.49A81,81,0,0,1,138,217.61a125.79,125.79,0,0,1,15.59-2"/><path class="cls-3" d="M109.51,235.07a82.6,82.6,0,0,1,10.21,19.58,86.9,86.9,0,0,1,25.51-7.74"/><path class="cls-3" d="M95.34,260.93a68.61,68.61,0,0,1,11.59,22.44,139.39,139.39,0,0,1,28.14-8.49"/><path class="cls-3" d="M91.5,292.05a121.83,121.83,0,0,1,8.43,10.53,91.63,91.63,0,0,1,20.75-5.78"/><path class="cls-2" d="M66.35,321S79.7,302,69.83,269.2C56.31,224.22,0,192.32,0,192.32s15.1,61.54,26.88,92.2C38.81,315.54,66.35,321,66.35,321Z"/><path class="cls-3" d="M69.83,337.46s-7.68-61.9-62.37-136.52"/><path class="cls-3" d="M27.28,214a43.06,43.06,0,0,0-3.17,11.67A43,43,0,0,0,12.33,224"/><path class="cls-3" d="M20.06,255.67a51,51,0,0,1,22.41,1.57,40.5,40.5,0,0,1,9.05-18.19"/><path class="cls-3" d="M67.79,268.58a58.59,58.59,0,0,0-11.67,19.25,33.87,33.87,0,0,0-22.63-1.44"/><path class="cls-3" d="M49.41,311a44.71,44.71,0,0,1,14.78-.2,34.2,34.2,0,0,1,7.16-10.52"/><polygon class="cls-11" points="117.69 326.17 115.58 338.07 113.27 351.16 112.05 358.02 109.74 371.12 103.58 405.99 58.6 405.99 52.32 371.12 49.96 358.02 48.73 351.16 46.36 338.07 44.22 326.17 117.69 326.17"/><polygon class="cls-6" points="115.58 338.07 113.27 351.16 48.73 351.16 46.36 338.07 115.58 338.07"/><polygon class="cls-6" points="112.05 358.02 109.74 371.12 52.32 371.12 49.96 358.02 112.05 358.02"/><rect class="cls-12" x="125.89" y="387.74" width="73.67" height="6.85"/><path class="cls-13" d="M138.5,324.32a4.55,4.55,0,0,1,0,.52l-1.14,9.44-10.19,84.11a4,4,0,0,1-4.47,3.57,4.08,4.08,0,0,1-3.52-4.07,4.55,4.55,0,0,1,0-.52l10.06-83.09,1.26-10.45a4,4,0,0,1,8,.49Z"/><path class="cls-12" d="M138.5,324.32a4.55,4.55,0,0,1,0,.52l-1.14,9.44h-8.07l1.26-10.45a4,4,0,0,1,8,.49Z"/><path class="cls-13" d="M167.74,323.61v94.26a4,4,0,0,1-4,4.11,3.94,3.94,0,0,1-2.83-1.21,4.15,4.15,0,0,1-1.17-2.91V323.6a4.06,4.06,0,0,1,4-4.11,3.9,3.9,0,0,1,2.83,1.21A4.2,4.2,0,0,1,167.74,323.61Z"/><path class="cls-12" d="M166.56,320.71a4.12,4.12,0,0,1,1.17,2.91v10.66h-8V323.62a4.06,4.06,0,0,1,4-4.11A3.86,3.86,0,0,1,166.56,320.71Z"/><path class="cls-13" d="M208,417.87a4.07,4.07,0,0,1-3.51,4.08,4,4,0,0,1-4.47-3.57l-10.19-84.11-1.14-9.44a4.55,4.55,0,0,1,0-.52,4.09,4.09,0,0,1,3.52-4.07,4,4,0,0,1,4.47,3.57l1.26,10.45L208,417.35A3.2,3.2,0,0,1,208,417.87Z"/><path class="cls-12" d="M197.91,334.27h-8.07l-1.14-9.44a4.55,4.55,0,0,1,0-.52,4.09,4.09,0,0,1,3.52-4.07,4,4,0,0,1,4.47,3.57Z"/><path class="cls-14" d="M215.29,313v2.67a8.45,8.45,0,0,1-8.45,8.45H131.2a8.45,8.45,0,0,1-8.45-8.45V313a8.45,8.45,0,0,1,8.45-8.45h75.64A8.44,8.44,0,0,1,215.29,313Z"/><path class="cls-15" d="M215.29,313v2.67a8.45,8.45,0,0,1-8.45,8.45H138.18a8.45,8.45,0,0,1-8.45-8.45V313a8.45,8.45,0,0,1,8.45-8.45h68.66A8.44,8.44,0,0,1,215.29,313Z"/><path class="cls-16" d="M136.3,144.56c-1,1.94-1.91,3.89-2.76,5.76a42,42,0,0,0,0,10.15,28.83,28.83,0,0,1-.57,10.11,11.33,11.33,0,0,1-6.42,7.6c-2.12.81-4.65.87-6.29,2.41-1.86,1.75-1.73,4.69-1.05,7.11a11,11,0,0,0,3.08,5.46c1.61,1.41,4.2,2.33,6,1.31a4.3,4.3,0,0,1,5.31,1.26c1.26,1.54,1.85,3.53,3.09,5.09a10,10,0,0,0,7.6,3.44c2.89.07,6-.34,7.9-1.54,4.13-2.59,9.28-4.31,13.51-1.88,2.23,1.28,4,3.32,6.4,4.24a7.86,7.86,0,0,0,6.37-.39c1.93-1,2.67-3.2,3.88-4.87,2.22-3.06,7.6-.59,11.32-1.6a8.16,8.16,0,0,0,5.73-9.37c-.93-3.91-5.26-5.3-9.12-5.88-2.65-.4-3.74-3.77-4.35-6.29a28,28,0,0,1-.39-7.76c.23-5.29,2.64-17.63,1.11-19.29a25.61,25.61,0,0,0-4.89-3.56l-15.06-6.88c-4.57-2.09-9.36-4.22-14.41-4.08S139.92,137.19,136.3,144.56Z"/><path class="cls-17" d="M153.7,192.19s-22.28,3.52-24.64,11.41,11.17,63.1,11.17,63.1l50.06-3.06S193.93,200,186,196,153.7,192.19,153.7,192.19Z"/><path class="cls-18" d="M173.13,194.38s-3.25,11.07-9.15,13.49-18.79-12.34-18.79-12.34c2.6-1.65,3.58-5.62,3.9-9.24a40.27,40.27,0,0,0,0-7l17.9,3.44c-.46,5.54,1.17,8.45,2.88,10A6.54,6.54,0,0,0,173.13,194.38Z"/><path class="cls-19" d="M169.83,192.74c-8.5,1.12-16.2-3.14-20.74-6.44a40.27,40.27,0,0,0,0-7l17.9,3.44C166.48,188.29,168.12,191.21,169.83,192.74Z"/><path class="cls-20" d="M221.61,402c-1.93,3.21-35.43-17.44-35.43-21,0-2.32,4.37-5.68,7.41-7.72,1.63-1.1,2.87-1.83,2.87-1.83l7.82-3.59,3.52,1.89c5.13,8.84,10,18.05,12.48,24.46C221.74,397.94,222.33,400.76,221.61,402Z"/><path class="cls-19" d="M220.29,394.15c-9.6.4-22.29-15.13-26.69-20.93,1.63-1.1,2.87-1.83,2.87-1.83l7.82-3.59,3.52,1.89C213,378.53,217.84,387.74,220.29,394.15Z"/><path class="cls-21" d="M187.14,268.36s61,7.72,63.05,23.33-38.25,84.49-38.25,84.49l-14.5-3.78,18.92-61.58-48.55-20.6,9.67-21.86Z"/><path class="cls-22" d="M206.79,403.73c-1.93,3.21-35.43-17.44-35.43-21,0-2.32,4.37-5.68,7.41-7.72,1.63-1.1,2.87-1.83,2.87-1.83l7.82-3.59,3.52,1.89c5.13,8.84,10,18,12.48,24.46C206.92,399.72,207.51,402.54,206.79,403.73Z"/><path class="cls-18" d="M205.47,395.93c-9.6.4-22.29-15.13-26.69-20.93,1.63-1.1,2.87-1.83,2.87-1.83l7.82-3.59,3.52,1.89C198.13,380.31,203,389.52,205.47,395.93Z"/><path class="cls-23" d="M135.71,263.13s-21.13,41.78,16,46.29c27,3.28,44.91,2.62,45.47,4.12.92,2.41-17.57,60.75-17.57,60.75l18.21,5.76s37.69-80.95,35.64-88c-1.69-5.8-53.7-14.65-53.7-14.65,4.38-2.08,7.6-9.65,7.13-19.41Z"/><path class="cls-24" d="M141.57,259.51s-12.12,26.67-2.42,37.49c11.43,12.75,61.42,8.64,64.9,13.15,2.79,3.61-19.31,62.58-19.31,62.58"/><line class="cls-25" x1="181.13" y1="371.84" x2="198.75" y2="377.21"/><path class="cls-19" d="M181.69,160.09c4.29-.48,8.07,1.67,8.42,4.8s-2.84,6.08-7.13,6.57-8.07-1.66-8.43-4.8S177.39,160.58,181.69,160.09Z"/><path class="cls-18" d="M139.15,159.84c0-14.83,9.42-26.85,22.07-26.85s22.91,12,22.91,26.85-6.47,27.59-18.38,28S139.15,174.66,139.15,159.84Z"/><path class="cls-19" d="M140.38,163.28a26.7,26.7,0,0,0,14-14.68c3.29,3.71,8.09,5.81,13,6.72s9.87.74,14.55.61a8.8,8.8,0,0,1,2.94,5.07,29.85,29.85,0,0,0-1.37-13.13q-18.9-5.76-37.57-12.23C144,144.51,142.12,153.38,140.38,163.28Z"/><path class="cls-26" d="M152.25,141.81c2.71,5.11,7.95,8.51,13.46,10.27s11.37,2,17.23,2.21a38.85,38.85,0,0,1,1.11,10.29A35.78,35.78,0,0,0,187.3,152c0-1.12,0-2.26,0-3.46-.29-8.16-3.67-12.8-8.2-16.28a25.66,25.66,0,0,0-15.83-5c-5.65,0-9.24,1.28-11.39,3.51a8.63,8.63,0,0,0-1.76,2.7C149.22,135.7,150.25,138.05,152.25,141.81Z"/><path class="cls-26" d="M133.41,165.07c-.19-7.25-.65-19.66,2.27-25.59,1.91-3.88,5.52-7.11,9.81-7.69s9,2.08,10,6.29a50.48,50.48,0,0,1-13.72,25.69C139.39,164.93,135.85,165.7,133.41,165.07Z"/><path class="cls-27" d="M151.89,130.85a28.72,28.72,0,0,1,24.42,4.92,31.5,31.5,0,0,1,11,16.27c0-1.12,0-2.26,0-3.46-.29-8.16-3.67-12.8-8.2-16.28a25.66,25.66,0,0,0-15.83-5C157.63,127.34,154,128.62,151.89,130.85Z"/><ellipse class="cls-18" cx="138.32" cy="167.24" rx="5.72" ry="7.83" transform="translate(-57.99 259.76) rotate(-75.64)"/><ellipse class="cls-28" cx="162.07" cy="167.24" rx="1.19" ry="1.9"/><ellipse class="cls-28" cx="178.62" cy="167.25" rx="1.19" ry="1.9"/><path class="cls-29" d="M175.14,158.39a8.32,8.32,0,0,1,7,.84"/><path class="cls-29" d="M163.09,158.18c-2.23-1-6.32-.78-8.25,1.42"/><path class="cls-30" d="M170.54,166.09a10.46,10.46,0,0,1-.51,6.11"/><path class="cls-30" d="M169.11,178.08c-2.64.52-7.42-1-8.72-3.19"/><path class="cls-18" d="M178.62,201.12l8.93-5.39s7.53.64,12.63,10,14.62,39.45,17.63,40.78,39.7,1.8,39.7,1.8l.5,10.75s-44.94,7.13-50.3,4.18S185,225.55,185,225.55Z"/><path class="cls-31" d="M178.07,199.91l1.72-6s9.86.42,14.9,4.37S203.86,213,203.86,213L191,233.65Z"/><path class="cls-32" d="M193.28,241.42s13.77-11.89,15.89-14.86c1.05-1.47,8.5,15.84,7.24,18-2,3.38-14.56,11.5-15.26,11S193.28,241.42,193.28,241.42Z"/><path class="cls-33" d="M189.67,230.59q6.22-9.89,12.44-19.76a3.14,3.14,0,0,1,.83-1c1-.69,2.53.16,2.95,1.32a6.13,6.13,0,0,1-.2,3.66,2.62,2.62,0,0,1,2.69,2.42,6.65,6.65,0,0,1-1,3.84,35.84,35.84,0,0,1-17.88,16.25C189.11,235.08,188.42,232.57,189.67,230.59Z"/><path class="cls-18" d="M251.84,250c5.14-3.61,15.08-10.77,15.83-11.11s6.92-.43,10.21.56,6.35,3.26,7.54,6.5c.33.91.42,2.12-.38,2.65a1.71,1.71,0,0,1-1.78-.09,6.69,6.69,0,0,1-1.37-1.29c-2.2-2.39-4.19-3.33-7.8-3.53,4.28.65,7,3.29,8.28,7.45.25.83.35,1.88-.32,2.42a1.67,1.67,0,0,1-1.9-.06,6.53,6.53,0,0,1-1.39-1.48,14.58,14.58,0,0,0-6-4.51,10.67,10.67,0,0,1,6.24,8.12,2.9,2.9,0,0,1-.09,1.55,1.2,1.2,0,0,1-1.22.78,1.82,1.82,0,0,1-1-.69c-1.78-2-3.18-4.15-5.55-5.59,2.16,2.88,4,7.56,3.53,8.78-.14.37-1.06,1-2.09,0s-2-3.17-3.81-5.4a13.41,13.41,0,0,1-12.67,4.06C254.65,256,253.21,252.94,251.84,250Z"/><path class="cls-34" d="M261.17,245.42a105,105,0,0,1,11.15-3.33,4.43,4.43,0,0,1,1.53-.18,1.57,1.57,0,0,1,1.25.79,1.52,1.52,0,0,1-.23,1.5,4,4,0,0,1-1.22,1,51.42,51.42,0,0,1-5.06,2.68,7.38,7.38,0,0,1-4.88,5.92"/><path class="cls-22" d="M170.13,192.92c2.14,1.86,3.53,12.34,4.63,19,1.65,10,10.05,53.37,10.55,56.44.89,5.42,18.05,5.05,18.74,2.22.13-.52-5-2.91-5.83-6.37-.73-3.1-6.43-63.51-9.18-66.69C185.41,193.32,169.44,192.32,170.13,192.92Z"/><path class="cls-22" d="M146.58,192.92c1.79.64,7.41,12.58,10.08,23.51,5.58,22.83,2.26,56.73,0,61.21s-24.16,6.45-27.88,5.26c-2.16-.69-4.51-69-3-77.61C126.76,199.57,146,192.73,146.58,192.92Z"/><path class="cls-18" d="M179.39,269.26c4.62-1.69,18-5.21,19.84-5a6.91,6.91,0,0,1,5,2.42,10.58,10.58,0,0,1,1.47,3.5l1.71,6a5.29,5.29,0,0,1,.3,2.15,1.63,1.63,0,0,1-1.28,1.49c-1,.08-1.56-1.07-1.91-2-.9-2.49-1.8-5-2.69-7.42.59,3.07,1.17,6.15,1.76,9.22a5.29,5.29,0,0,1,.11,2.2,1.64,1.64,0,0,1-1.42,1.38c-1,0-1.51-1.33-1.74-2.41a66.4,66.4,0,0,0-1.82-7.19,20.52,20.52,0,0,1,.44,10.55,3.11,3.11,0,0,1-.64,1.47,1,1,0,0,1-1.38.16,1.77,1.77,0,0,1-.39-1.14l-.93-9.31c.3,3.27.59,6.64-.33,9.77a3.2,3.2,0,0,1-.79,1.5,1.15,1.15,0,0,1-1.49.14,2.07,2.07,0,0,1-.48-1.54c-.07-1.95-.14-3.9-.15-6.18a11,11,0,0,1-6.61,3.74,16.91,16.91,0,0,1-7.61-1C178.54,278.09,178.75,274.45,179.39,269.26Z"/><path class="cls-22" d="M145.19,213.33c-1.4-6.47-7.2-17-11.93-14.79-2.71,1.25-10.52,3.86-10.52,21,0,23.13,3,53.52,10.52,58.61,3.8,2.59,45.36,5.13,45.36,5.13l3-14.89s-30.63-5.68-32-9.88C147.63,252.55,148.91,230.54,145.19,213.33Z"/><path class="cls-35" d="M141.57,209.78c5.14,17.38,6.22,47,7,48.73.69,1.62,4.6,2.3,7.67,3.35"/><path class="cls-35" d="M147.44,280.77c-5.7-.57-12.78-1.68-14.36-2.86-1.86-1.39-4.13-8.19-5.73-12.83"/><path class="cls-35" d="M146.61,238.53c2-2.57,2.89-6.83,3.06-12"/><rect class="cls-12" x="298.37" y="385.96" width="73.67" height="6.67"/><path class="cls-13" d="M311,324.19a4.38,4.38,0,0,1,0,.51l-1.14,9.19L299.62,415.8a4,4,0,0,1-8-.48,4.38,4.38,0,0,1,0-.51l10.06-80.93L303,323.7a4,4,0,0,1,8,.49Z"/><path class="cls-12" d="M311,324.19a4.38,4.38,0,0,1,0,.51l-1.14,9.19h-8.07L303,323.71a4,4,0,0,1,8,.48Z"/><path class="cls-13" d="M340.22,323.5v91.8a4,4,0,1,1-8,0V323.5a4,4,0,0,1,4-4,4,4,0,0,1,4,4Z"/><path class="cls-12" d="M339.05,320.67a4,4,0,0,1,1.17,2.83v10.39h-8V323.5a4,4,0,0,1,6.84-2.83Z"/><path class="cls-13" d="M380.49,415.31a4,4,0,0,1-8,.5L362.32,333.9l-1.14-9.19a4.38,4.38,0,0,1,0-.51,4,4,0,0,1,8-.48l1.26,10.18,10.06,80.93A2.59,2.59,0,0,1,380.49,415.31Z"/><path class="cls-12" d="M370.4,333.89h-8.07l-1.14-9.19a4.38,4.38,0,0,1,0-.51,4,4,0,0,1,8-.48Z"/><path class="cls-14" d="M387.78,313v2.67a8.45,8.45,0,0,1-8.45,8.45H303.69a8.45,8.45,0,0,1-8.45-8.45V313a8.45,8.45,0,0,1,8.45-8.45h75.64A8.44,8.44,0,0,1,387.78,313Z"/><path class="cls-15" d="M387.78,313v2.67a8.45,8.45,0,0,1-8.45,8.45H310.68a8.45,8.45,0,0,1-8.45-8.45V313a8.45,8.45,0,0,1,8.45-8.45h68.65A8.44,8.44,0,0,1,387.78,313Z"/><path class="cls-36" d="M288.71,192.19c1.52-2.49,0-5.73.52-8.61a3.4,3.4,0,0,1,1.1-2.12,1.74,1.74,0,0,1,2.23,0c.71.69.47,1.85.46,2.84,0,1.78.83,3.43,1.2,5.17.9,4.22-1.34,7.69-3.48,11.33a20.84,20.84,0,0,1-8.57,3.39c-1.42.14-8.69-3.87-11.53-12.49-1.43-4.32-1.26-6.11-.78-6.7a1.55,1.55,0,0,1,2-.41,2.29,2.29,0,0,1,.69,1.16c.91,2.59,1.81,5.18,2.7,7.87a16.65,16.65,0,0,1-5.19-13c.05-.92.33-2,1.21-2.3a1.66,1.66,0,0,1,1.61.5,5,5,0,0,1,.93,1.5c1.26,2.73,2.53,5.45,4.3,8.69a12.61,12.61,0,0,1-3.44-12.15c.19-.72.62-1.56,1.37-1.57s1.21.83,1.48,1.55l3.84,10.3a14.58,14.58,0,0,1-2.16-9.72c.16-1.22.78-2.69,2-2.74a2,2,0,0,1,1.72,1.05,6.81,6.81,0,0,1,.69,2C284.62,181.68,286.36,185.4,288.71,192.19Z"/><path class="cls-37" d="M270.63,184.67c1.14-.31,1.94.09,2.38,1.74.62,2.33,2.27,7.73,4,8.93"/><polygon class="cls-36" points="291.1 198.66 295.29 208.43 284.21 215.14 279.28 202.1 291.1 198.66"/><path class="cls-38" d="M290.64,187.16c-.8-4.47-4.17-7.74-8-8.15l-.06-.31s-2,.36-2.68.51c-4.38,1-7.09,5.89-6.19,11s5.15,8.74,9.6,8.15c.68-.09,2.69-.45,2.69-.45l-.06-.31C289.4,195.87,291.44,191.64,290.64,187.16Z"/><path class="cls-39" d="M282.39,178.73c4.68-.84,9.24,2.79,10.18,8.09s-2.07,10.27-6.75,11.11-9.23-2.79-10.18-8.09S277.72,179.56,282.39,178.73Z"/><path class="cls-17" d="M290.61,187.17c-.73-4.07-4.24-6.86-7.84-6.22l-.19,0c-3.49.73-5.73,4.5-5,8.5s4.11,6.77,7.65,6.25l.19,0C289,195.08,291.34,191.25,290.61,187.17Z"/><path class="cls-7" d="M325.09,196.05l-6.82-5.19a18.21,18.21,0,0,0-6.82,7.79c-2.37,5.27-5.51,22.86-5.51,22.86L293.2,200.35,277,211.87s18,45.56,28.84,46.11,18.47-9.49,18.47-9.49Z"/><polygon class="cls-18" points="271.33 392.93 273.4 405.98 281.94 409.45 291.75 404.76 289.97 391.9 271.33 392.93"/><path class="cls-40" d="M297.27,422,253,421.35a11.26,11.26,0,0,1-.42-2.25,8,8,0,0,1,2.74-7.22c3.72-2.89,9.63-3.29,13.47-4.78a8.56,8.56,0,0,0,3.69-3.16l6.3.36s.52,3.51,2.86,3.3,10.07-4,10.07-4a38.94,38.94,0,0,1,5.49,15.5A15.88,15.88,0,0,1,297.27,422Z"/><path class="cls-41" d="M297.27,422,253,421.35a11.26,11.26,0,0,1-.42-2.25h44.61A15.48,15.48,0,0,1,297.27,422Z"/><polygon class="cls-18" points="324.27 392.93 326.34 405.98 334.88 409.45 344.69 404.76 342.91 391.9 324.27 392.93"/><path class="cls-40" d="M350.21,422l-44.27-.64a11.26,11.26,0,0,1-.42-2.25,8,8,0,0,1,2.74-7.22c3.72-2.89,9.63-3.29,13.47-4.78a8.56,8.56,0,0,0,3.69-3.16l6.3.36s.52,3.51,2.86,3.3,10.07-4,10.07-4a38.94,38.94,0,0,1,5.49,15.5A15.88,15.88,0,0,1,350.21,422Z"/><path class="cls-41" d="M350.21,422l-44.27-.64a11.26,11.26,0,0,1-.42-2.25h44.61A15.48,15.48,0,0,1,350.21,422Z"/><path class="cls-42" d="M321.67,263.93l-7.25,11.75s-41.51,6.32-48.23,16.49c-6.2,9.38,2.2,104.46,2.2,104.46H296.9s-2.18-70.23,0-76.73,67.55-6.13,71.3-14.95,5-39.77,5-39.77"/><path class="cls-43" d="M374.36,277.49S376,302.94,367.61,309c-7.26,5.29-25.72,6.67-25.72,6.67l3.56,79.16-27.26,1.78s-13.54-92.39-12.9-101.25,26.86-15.27,25.07-16.53c0,0-20.21-6.86-12.72-14.4l.55-.52c1.74-1.54,23,.05,23,.05l19.63-1.8,7.77,8.81Z"/><path class="cls-42" d="M373.35,285.55c-.17,1.25-.36,2.59-.56,3.95-3.36-4.27-8.79-10.52-13.58-13.15-9.93-5.46-41.67-9.19-41.67-9.19l.12-2.71.55-.52c1.74-1.54,23,.05,23,.05l19.63-1.8,7.77,8.81Z"/><path class="cls-36" d="M360.2,183.29s-11.69,15.1-19,14.33-13-8.83-13-8.83,2.92-1.08,4.18-5.85c.74-2.75.91-6.73-.35-12.44l21.64-3.21a30,30,0,0,0,.81,7.5C355.36,178.11,357,181.65,360.2,183.29Z"/><path class="cls-19" d="M332.44,183c.74-2.75.91-6.73-.35-12.44l21.64-3.21a30,30,0,0,0,.81,7.5A36.75,36.75,0,0,1,332.44,183Z"/><path class="cls-19" d="M312.21,157.7c.33-2.93,3.85-4.93,7.85-4.48s7,3.2,6.66,6.12-3.85,4.93-7.86,4.48S311.88,160.62,312.21,157.7Z"/><path class="cls-44" d="M320.43,158.48v-.08a1.74,1.74,0,0,0-1.74-1.74h-1A1.74,1.74,0,0,0,316,158.4v.08a1.74,1.74,0,0,0,1.74,1.74h1A1.74,1.74,0,0,0,320.43,158.48Z"/><rect class="cls-44" x="315.98" y="158.44" width="1.46" height="4"/><path class="cls-36" d="M361.06,150.13c0-13.82-9.56-25-21.36-25s-21.36,7.38-21.36,25c0,13.82,5.36,25.81,18.06,26.65C348.17,177.55,361.06,164,361.06,150.13Z"/><path class="cls-19" d="M358.54,156.67a30,30,0,0,1-8.23-13.91,6.51,6.51,0,0,1-5.73-.87,15.89,15.89,0,0,1-13.42-.77,11.18,11.18,0,0,1-10-.31,21.22,21.22,0,0,0-3.31,6.79q.45-7.14.92-14.29,16.9-2.38,34-3.32a3.71,3.71,0,0,1,1.9.23,3.67,3.67,0,0,1,1.5,2.36C358.58,140.48,359.8,148.74,358.54,156.67Z"/><path class="cls-40" d="M364,131.78c-.47,7.1-.93,16.26-1.4,23.27-.66,2.41-2.73,2.32-5.54,3.22a69.49,69.49,0,0,1-5.18-19,13.77,13.77,0,0,1-8.48-.56,18.09,18.09,0,0,1-13.21,0,15.25,15.25,0,0,1-9.82.18c-1.15,3.49-1.71,8.79-2,12.51-.4-3.41-1.72-14-2.05-21.19a24.41,24.41,0,0,1,.25-6.65c1.34-3.93,5.68-2.66,6.84-1.31a6.5,6.5,0,0,1,4.41-3.68,7.15,7.15,0,0,1,5.84,1.39,7.45,7.45,0,0,1,6.27-3.85,6.21,6.21,0,0,1,6,3.84,13.09,13.09,0,0,1,3.77-1.52,5.5,5.5,0,0,1,3.94.61,4.25,4.25,0,0,1,1.38,1.47,6.06,6.06,0,0,1,.77,2.25,4,4,0,0,1,5-.93,6.5,6.5,0,0,1,3.06,4.42A18.89,18.89,0,0,1,364,131.78Z"/><path class="cls-45" d="M355,120.52a7.37,7.37,0,0,0-4.54-.44,6.78,6.78,0,0,0-4.56,3.5,6.23,6.23,0,0,0-6-3.94c-2.55.13-4.91,2-6.08,5a6.6,6.6,0,0,0-5.7-2.25,6.28,6.28,0,0,0-5,3.72,2.84,2.84,0,0,0-3.11-.63,5.49,5.49,0,0,0-2.5,2.2,12.12,12.12,0,0,0-1.26,2.52,24.41,24.41,0,0,1,.25-6.65c1.34-3.93,5.68-2.66,6.84-1.31a6.5,6.5,0,0,1,4.41-3.68,7.15,7.15,0,0,1,5.84,1.39,7.45,7.45,0,0,1,6.27-3.85,6.21,6.21,0,0,1,6,3.84,13.09,13.09,0,0,1,3.77-1.52,5.5,5.5,0,0,1,3.94.61A4.3,4.3,0,0,1,355,120.52Z"/><path class="cls-46" d="M327,149.07a7,7,0,0,0-5.43,1"/><path class="cls-46" d="M341.11,149.43a6.58,6.58,0,0,1,6.24.61"/><path class="cls-47" d="M332.55,157.07a41.66,41.66,0,0,0,.58,5.9"/><path class="cls-47" d="M335.34,168.47a9.31,9.31,0,0,0,6.59-2.44"/><path class="cls-48" d="M341.89,156.63c.6-.11,1.2.45,1.34,1.23a1.15,1.15,0,1,1-1.34-1.23Z"/><path class="cls-48" d="M325.15,156.86c.6-.11,1.2.45,1.34,1.23a1.31,1.31,0,0,1-.84,1.62c-.6.11-1.21-.44-1.35-1.23A1.31,1.31,0,0,1,325.15,156.86Z"/><path class="cls-36" d="M359.22,153.22c4-.55,7.55,1.37,8,4.29s-2.51,5.72-6.51,6.27-7.55-1.36-8-4.28S355.22,153.77,359.22,153.22Z"/><path class="cls-44" d="M359,158.48v-.08a1.74,1.74,0,0,1,1.74-1.74h1a1.74,1.74,0,0,1,1.74,1.74v.08a1.74,1.74,0,0,1-1.74,1.74h-1A1.74,1.74,0,0,1,359,158.48Z"/><rect class="cls-44" x="361.98" y="158.44" width="1.46" height="4"/><path class="cls-49" d="M357.54,180s-11.85,7.16-13.91,9.73a15.5,15.5,0,0,0-2.69,6.1s-2.84-6-3.48-6.49-5.61-5.21-5.61-5.21L326,188.53l-7.81,4.06.33,75,52.82,3.58,1.36-81.41Z"/><path class="cls-50" d="M340.88,196.25c-2.5,21,1.84,57.81-5.21,72.09"/><path class="cls-51" d="M341.9,192.69s.89-3.32,2.94-5,12.62-7.86,12.9-7.93,5.47,3.55,5.47,3.55l-7.84,11.13s-8-5.65-9.92-5.17S341.9,192.69,341.9,192.69Z"/><path class="cls-51" d="M339.44,192.7a11.71,11.71,0,0,0-1.68-3.66c-1.24-1.53-5.34-5.95-5.76-5.92s-4.58,2.52-5.32,4-.32,8.65-.32,8.65,7-6.68,9.76-5.92C337.94,190.39,339.44,192.7,339.44,192.7Z"/><path class="cls-7" d="M362.08,182.05s-9.17,8.62-10.55,17.37-.85,54.79,7.64,70.11c7.36,13.29,8.06,55.62,8.06,75.27L393,335.92s-.11-35.25-8.43-67.89c-6.45-25.3-.26-71.53-3.95-76C378,188.82,362.08,182.05,362.08,182.05Z"/><path class="cls-52" d="M351.21,231.18s-2.13-24.32-.07-32.15,8-17.78,9.63-18.13c2.66-.57,8.61,4,8.61,4a58.73,58.73,0,0,0-6.24,21c-.13,1.14-9.58,4.63-9.58,4.63s7.38,5.4,7.28,5.93S351.21,231.18,351.21,231.18Z"/><ellipse class="cls-39" cx="334.3" cy="272.62" rx="10.01" ry="6.23"/><path class="cls-18" d="M348,264.46l-10.2-1.35a4.91,4.91,0,0,0-2.72.16,3.67,3.67,0,0,0-1.78,3.22c1.7.15,3.4.29,5.12.57a33.55,33.55,0,0,1-7.5,7.45,8.24,8.24,0,0,0-1.79,1.53,2.43,2.43,0,0,0-.51,2.21,2.31,2.31,0,0,0,1.77,1.39,19.67,19.67,0,0,0,2.48.07,2.71,2.71,0,0,0,1.31,3,3.25,3.25,0,0,0,3.4-.44,3.62,3.62,0,0,0,2.63,1.85,8.06,8.06,0,0,0,3.23-.51,4.27,4.27,0,0,0,3.25,1.46,5.41,5.41,0,0,0,3.42-1.49,26.31,26.31,0,0,0,6.81-9.57A73,73,0,0,1,348,264.46Z"/><path class="cls-7" d="M364.5,201.25c-.25-4.83,2.2-13.92,5.68-14.87,5.42-1.47,14.63,6.67,17.05,13.15s9.73,46.19,7.68,51.6C392.1,258.51,355,278.36,355,278.36l-11.5-16.81s25.73-14,27.26-18.4C371.7,240.37,365.09,212.58,364.5,201.25Z"/><path class="cls-53" d="M377,192.93s-4.15,5.43-4.15,15.21,2.4,32.94,1.84,33.79S356,254.54,356,254.54"/><path class="cls-53" d="M373.1,222.89a25.42,25.42,0,0,1-5.48-11"/><path class="cls-53" d="M363.25,274.37c5.89-3.21,14.41-8.22,19.54-12.31"/><path class="cls-7" d="M330.37,183.76s-1.56,6-1.56,16.43c0,17.5-2.28,66.16-11.49,73.35-7.24,5.65-16.31,5.29-20.43,5.29,0,0,8.57-4.56,11.77-9.85,3.56-5.88,4.16-24.57,4.63-34.31.5-10.32,1.43-38.76,2.61-41.24C318.46,188.08,330.37,183.76,330.37,183.76Z"/><path class="cls-52" d="M327.38,232.67s2.09-16.47,2.09-27.92a102.47,102.47,0,0,1,2.11-21.64s-7.28,2.31-8.08,3.49-4.57,8-6.5,20.78c-.32,2.12,8.28,3.87,8.28,3.87s-6.63,5.15-6.63,6.44C318.66,220.19,327.38,232.67,327.38,232.67Z"/><path class="cls-53" d="M315.5,198.52c0,27.9-2.53,50.22-3.75,58"/><path class="cls-53" d="M311.54,208.52c.72,4,2.46,7.95,3.53,9.16"/><path class="cls-54" d="M316.68,162.38s1.37,32.19,20.67,33.42c16.29,1,25.33-19,25.33-33.47"/><path class="cls-55" d="M338.57,196.2s-11.87,43.38-44.8,51.22c-40.3,9.6-79.79-1.19-79.79-1.19"/><path class="cls-55" d="M285.35,197.43s4.55,26.3-15.84,39.92c-18.06,12.07-55.53,8.34-55.53,8.34"/><path class="cls-55" d="M325,272.46s-73.86.15-111.5-26.23"/><path class="cls-56" d="M479.6,87.29a17.14,17.14,0,0,1,32.65-8.24c2.86,6.12,1.88,13.29.5,19.91s-3.08,13.47-1.51,20c1.33,5.53,4.9,10.41,5.61,16.05a16.86,16.86,0,0,1-12.06,17.79c-4.28,1.11-9.81-.26-11.17-4.47-1.26-3.9,1.62-8.05,1-12.1-.49-3.4-3.26-5.92-5.54-8.48C480.72,118.33,480.6,104.7,479.6,87.29Z"/><path class="cls-57" d="M406.17,186.9c-3.83-4.37-6.63-12.24-6.63-14.89,0-3.13-.5-6.34.6-9.27a23.25,23.25,0,0,1,2.31-4.24l3-4.65a3.13,3.13,0,0,1,1.61-1.52c1.23-.33,2.36,1.06,2.3,2.34s-.91,2.35-2.36,3.48a13.79,13.79,0,0,1,3.37-6.25,1.86,1.86,0,0,1,1.63-.78c1,.24,1,1.68.71,2.68-.68,2.51-1.35,5-1.89,7.18,2.14,4.08,2,8.92,2,13.52s.49,9.58,3.53,13C413.38,188.82,409.94,183.72,406.17,186.9Z"/><path class="cls-57" d="M405.73,186.36s10.15,34.68,17.82,35.39c9.28.87,16.82-7.71,16.82-7.71L446.43,183l-13.74-8.23-7.58,24.89-10.82-12.23Z"/><path class="cls-58" d="M451.44,188.16c-7.56-2.86-15.15-5.66-22.7-8.56,2.06-9.87,4.92-21.7,7.42-25.48a16.78,16.78,0,0,1,12.24-7.43l3.45,10.21-.41,31Z"/><polygon class="cls-59" points="444.47 208.25 422.37 151.12 395.27 158.15 420.35 221.76 444.47 208.25"/><polygon class="cls-17" points="440.79 205.11 420.88 154.26 398.78 160.25 420.55 215.89 440.79 205.11"/><polygon class="cls-60" points="413.78 152.88 415.16 156.57 406.49 158.98 404.94 155.21 413.78 152.88"/><path class="cls-61" d="M431.41,414.75c.08,3.75,39.41,2.48,41.18-.61,1.15-2-1-7.1-2.59-10.39-.86-1.77-1.58-3-1.58-3l-5-7-4-.11c-8.85,5.11-17.67,10.67-23,15C433.3,411.22,431.38,413.36,431.41,414.75Z"/><path class="cls-57" d="M436.44,408.65c8.13,5.12,26.86-2,33.56-4.89-.86-1.77-1.58-3-1.58-3l-5-7-4-.11C450.58,398.74,441.75,404.3,436.44,408.65Z"/><polygon class="cls-57" points="448.51 378.2 449.9 393.53 450.4 399.03 450.75 402.81 466.66 401.14 466.79 398.47 466.79 398.46 466.92 395.66 467.8 377.54 467.89 375.72 458.2 376.96 448.51 378.2"/><polygon class="cls-62" points="448.51 378.2 449.9 393.53 457.86 394.52 457.87 394.52 464.58 395.37 466.92 395.66 467.8 377.54 458.2 376.96 448.51 378.2"/><path class="cls-63" d="M437.27,224.82s-6.84,18.92-5.49,45.82,12.69,120.71,12.69,120.71L472.73,390l-4.84-121.1-6.82-37.5"/><path class="cls-61" d="M502.12,414.37c2.49,2.8,31.6-23.68,31-27.17-.43-2.28-5.34-4.77-8.71-6.22-1.8-.78-3.16-1.27-3.16-1.27l-8.35-2.08-3.11,2.5c-3.42,9.63-6.53,19.59-7.75,26.34C501.26,410.45,501.2,413.33,502.12,414.37Z"/><path class="cls-57" d="M502,406.46c9.51-1.38,19.12-19,22.37-25.49-1.8-.78-3.16-1.27-3.16-1.27l-8.35-2.08-3.11,2.5C506.32,389.75,503.21,399.7,502,406.46Z"/><polygon class="cls-57" points="491.43 375.46 498.04 381.93 506.37 390.08 509.09 392.73 520.12 381.15 518.48 379.02 513.71 372.84 504.57 361 491.43 375.46"/><polygon class="cls-62" points="491.43 375.46 498.04 381.93 513.71 372.84 504.57 361 491.43 375.46"/><path class="cls-64" d="M433.51,242.6c2.75,7.64,23.46,21.1,23.46,21.1s-.2,53.33.57,66.77,28.62,57.32,28.62,57.32l26.1-23.17S492,330.79,490.64,322.84,498,273.08,498,256.06a65.71,65.71,0,0,0-.77-9.61,119.87,119.87,0,0,0-4.65-19.19c-1.67-5.15-3.08-8.53-3.08-8.53a257.31,257.31,0,0,0-28.34,6c-13,3.62-25.87,8.85-27.84,15.52A3.76,3.76,0,0,0,433.51,242.6Z"/><path class="cls-58" d="M433.51,242.6A168.13,168.13,0,0,0,455,253.32a32.29,32.29,0,0,1,1.56-3.69c.65,1.41,1.31,2.8,2.11,4.71,12.76-3.2,25.64-5.91,38.57-7.89a119.87,119.87,0,0,0-4.65-19.19q-15.69-1.47-31.42-2.51c-13,3.62-25.87,8.85-27.84,15.52A3.69,3.69,0,0,0,433.51,242.6Z"/><path class="cls-49" d="M506,155c-1-6-23.7-13.71-31.42-13-16.58,1.51-28.59,4.52-32.37,6.89S435,173.36,435,179.53c0,7.3,2.51,21.63,1.84,27.41-1.3,11.21-8.1,34.95-8.1,34.95l25,8.76,3.1-5.46,2.83,6.92,41.3-9.47s-3.16-32.89-3.16-38.66C497.78,198.45,507.27,162.71,506,155Z"/><path class="cls-24" d="M467.41,158.89c-8.3,43.23-8.76,55.61-10.65,86"/><circle class="cls-65" cx="468.51" cy="167.45" r="1.39"/><circle class="cls-65" cx="465.03" cy="186.36" r="1.39"/><circle class="cls-65" cx="462.35" cy="206.29" r="1.39"/><circle class="cls-65" cx="460.96" cy="229.14" r="1.39"/><path class="cls-65" d="M419.21,185.65l4.14.33.32,0,27.76-7.29c1.9-1,2.22-2.57,1.77-3.84a3.14,3.14,0,0,0-4-1.76l-26.48,9.36-.27.24Z"/><path class="cls-66" d="M419.21,185.65l1.14.09,3,.24a1.94,1.94,0,0,1-.27-.23,1.37,1.37,0,0,1-.41-1.34c.06-.2.18-.41.1-.6a1,1,0,0,0-.18-.22,1,1,0,0,1-.16-.87l-2.37,2.16Z"/><path class="cls-67" d="M419.21,185.65l1.14.09a1.11,1.11,0,0,1-.25-.45,1.12,1.12,0,0,1,0-.41Z"/><path class="cls-57" d="M452,191.82c-2.73-5.06-5.45-10.12-8.36-15.19a27.53,27.53,0,0,0-7.07-3.9,19.67,19.67,0,0,0-8,5.11c-.56.59-1.15,1.42-.89,2.21a1.29,1.29,0,0,0,1.35.82,3.85,3.85,0,0,0,1.57-.63c1.51-.88,3-1.77,4.77-2.62a12.8,12.8,0,0,1,1.35,1.27,11.44,11.44,0,0,0-3.26.38,51.42,51.42,0,0,0-5.71,3.15,2.09,2.09,0,0,0-1.15,1.43,1.33,1.33,0,0,0,.71,1.26,2.48,2.48,0,0,0,1.4.2,9.24,9.24,0,0,0,4.9-1.83,6.43,6.43,0,0,1,1.6.62,8.14,8.14,0,0,0-2.2.63,3.06,3.06,0,0,0-1.44,4.34,1.16,1.16,0,0,0-.6,1.14,3.22,3.22,0,0,0,.42,1.29,25.57,25.57,0,0,0,1.41,2.45,4.48,4.48,0,0,0,1.82,1.77,1.8,1.8,0,0,0,2.29-.87,10.21,10.21,0,0,0,9.66,5.25A31,31,0,0,0,452,191.82Z"/><path class="cls-68" d="M440.11,179.47a10.92,10.92,0,0,0-3.11-.66"/><path class="cls-68" d="M438.1,183.84a11.44,11.44,0,0,0-2.73.08"/><path class="cls-68" d="M431.69,188.76a9.9,9.9,0,0,1,5.27-1"/><path class="cls-68" d="M436.46,194.58a10.62,10.62,0,0,1-1.11-3"/><path class="cls-68" d="M435.67,193.21a9,9,0,0,1-1.8.14"/><path class="cls-57" d="M444.87,198.81s34.56,29.31,43.89,26c3.71-1.32,7.39-12.08,10.06-22.1,2.46-9.21,4.06-17.78,4.06-17.78l-19.58-8.27s-1.31,8.88-2.63,16.1c-.87,4.87-1.75,9-2.22,9.1-2,.56-27.37-10.73-27.37-10.73Z"/><path class="cls-62" d="M480.67,192.78c4.67,3.06,12,7.57,18.14,9.95,2.46-9.21,4.06-17.78,4.06-17.78l-19.58-8.27S482,185.56,480.67,192.78Z"/><path class="cls-64" d="M502.87,195.37c-8.57-1.63-15.37-3-23.56-6,1.16-9.62,3.87-27,6.07-32.38,1.56-3.8,7.69-10.48,14.6-7.59s9.56,7.45,8.83,19.48C508.54,173.19,504.47,186.66,502.87,195.37Z"/><path class="cls-57" d="M461.09,146.34s2,9.1,5.89,11.76,18.57-13.7,18.57-13.7c-2.53-2.36-3.14-7-3.11-11.09a47.52,47.52,0,0,1,.73-7.78l-17.9,5.17a35.92,35.92,0,0,1-.74,9.9C463.31,145.57,461.09,146.34,461.09,146.34Z"/><path class="cls-62" d="M464.54,140.6c8.25,1.75,14.56-3.5,17.9-7.29a47.52,47.52,0,0,1,.73-7.78l-17.9,5.17A35.57,35.57,0,0,1,464.54,140.6Z"/><path class="cls-65" d="M467.64,158.42c-.23,0,.92-6.18,1.5-6.71s14.69-12.89,15.53-12.43c1.23.66,3.26,4.58,3.26,4.58a51.69,51.69,0,0,1-8.37,8.37C475.8,155.28,469.8,158.79,467.64,158.42Z"/><path class="cls-65" d="M467.64,158.39c.31-.31-.32-6.4-.68-7-1.17-1.85-3.15-6.67-3.15-10,0,0-3.56,1.35-4,2.13s1.5,6.56,3,9.31C465.33,157.55,467.39,158.64,467.64,158.39Z"/><ellipse class="cls-62" cx="450.62" cy="116.69" rx="5.44" ry="7.45" transform="translate(283.92 551.3) rotate(-83.53)"/><path class="cls-57" d="M493,108.13c0-14.1-9.75-25.53-21.78-25.53S449.46,94,449.46,108.13s6,28.12,18.2,27.62C479.67,135.25,493,122.23,493,108.13Z"/><path class="cls-62" d="M488.19,114.18c-2.53-2.75-4.13-7.94-4.52-10.15a11.91,11.91,0,0,1-6.82-6.15c-3.69,3.69-17.71,5.77-22.39,4.55-3.33,4.11-3.43,6.15-4.61,11.4a57.41,57.41,0,0,1,1-19.25,206.3,206.3,0,0,0,25.67-10.22c1.42-.68,3.12-1.37,4.48-.57a5.29,5.29,0,0,1,1.77,2.41,30.58,30.58,0,0,0,7.86,10c.85.71,1.82,1.51,1.86,2.61a4,4,0,0,1-.7,2C490.21,103.7,490.48,110.65,488.19,114.18Z"/><path class="cls-69" d="M445.76,99.49c-.07,5.34,4.28,16.43,4.28,16.43s0-9.13,4.19-15.06c8.61,0,18.15-.4,23.43-5.3a11.69,11.69,0,0,0,7.33,7.2c-.1,4.84,2.12,9.37,3.51,13.44,2.71-1.65,4.75-1,7-3.56,1.28-4.73,2.64-12.12,2.25-16.69a23,23,0,0,0-3.32-10.49,16.26,16.26,0,0,0-1.6-2.11c-3.08-3.41-7.94-5.4-12.39-4.29a14.24,14.24,0,0,0-10-4.92A20,20,0,0,0,459.47,77C453,80.68,448,86.36,446.33,94.26A27.46,27.46,0,0,0,445.76,99.49Z"/><path class="cls-70" d="M445.76,99.49a21,21,0,0,1,.65-2,29,29,0,0,1,5.53-8.78c3.47-4,7.78-7.41,12.87-8.83s11-.52,14.8,3.15a14.68,14.68,0,0,1,14.77,2.46,16.26,16.26,0,0,0-1.6-2.11c-3.08-3.41-7.94-5.4-12.39-4.29a14.24,14.24,0,0,0-10.05-4.92A20,20,0,0,0,459.46,77C453,80.67,448,86.35,446.32,94.25A28.49,28.49,0,0,0,445.76,99.49Z"/><path class="cls-57" d="M491.69,111.51c4-1,7.82.52,8.57,3.43s-1.88,6.09-5.87,7.11-7.82-.51-8.57-3.42S487.71,112.53,491.69,111.51Z"/><ellipse class="cls-71" cx="472.72" cy="117.57" rx="0.95" ry="1.52"/><ellipse class="cls-71" cx="455.27" cy="117.57" rx="0.95" ry="1.52"/><path class="cls-72" d="M458.07,108.36a7.08,7.08,0,0,0-5.61.45"/><path class="cls-72" d="M471.24,109.15a6.71,6.71,0,0,1,6.36.62"/><path class="cls-73" d="M461.8,118.73a18.47,18.47,0,0,0,0,4.27"/><path class="cls-73" d="M462.87,127.22c2.65,1.05,5.42.48,6.85-1.69"/><circle class="cls-1" cx="155.45" cy="58.94" r="36.69"/><path class="cls-33" d="M131.48,46.6c8-15,23.91,5.12,23.91,5.12s15.91-17.16,23.91-6c8.31,11.57-23.91,38.52-23.91,38.52S124.65,59.33,131.48,46.6Z"/><polyline class="cls-74" points="128.83 63.39 139.96 63.51 143.42 49.97 150.55 75.71 156.19 44.53 162.32 72.61 165.98 52.25 169.9 62.93 182.07 63.26"/><circle class="cls-1" cx="257.01" cy="116.12" r="37.5"/><path class="cls-64" d="M277,117.78l-28.7,16.44A11.39,11.39,0,1,1,237,114.46L265.7,98a11.38,11.38,0,0,1,16.64,12.87A11.28,11.28,0,0,1,277,117.78Z"/><path class="cls-33" d="M277,117.78,262.66,126l-11.32-19.76L265.7,98a11.38,11.38,0,0,1,16.64,12.87A11.28,11.28,0,0,1,277,117.78Z"/><circle class="cls-1" cx="352.38" cy="46.94" r="36.69"/><path class="cls-75" d="M371.08,28.53V53.68a18.21,18.21,0,0,1-8.3,15.25L352.38,75l-9.54-6.19A18.26,18.26,0,0,1,333.67,53V28.53l18.58-5.32.13,0Z"/><path class="cls-76" d="M371.08,28.53V53.68a18.21,18.21,0,0,1-8.3,15.25L352.38,75V23.25Z"/><rect class="cls-33" x="348.06" y="34.89" width="8.63" height="28.42"/><rect class="cls-33" x="338.16" y="44.79" width="28.42" height="8.63"/></g></g></svg>