<svg xmlns="http://www.w3.org/2000/svg" viewBox="0 0 257.59 336.47"><defs><style>.cls-1{fill:currentColor;}</style></defs><g id="Capa_2" data-name="Capa 2"><g id="Capa_1-2" data-name="Capa 1"><path class="cls-1" d="M240.24,150.89H165.91l38.78-38.78a17.34,17.34,0,1,0-24.53-24.52l-38.78,38.77v-109A17.34,17.34,0,0,0,124,0h0A17.34,17.34,0,0,0,106.7,17.34v109L29.61,49.27A17.35,17.35,0,0,0,5.08,73.8l77.09,77.09H42.52a17.35,17.35,0,0,0,0,34.69H82.17L5.08,262.67a17.34,17.34,0,0,0,24.53,24.52l77.09-77.08v109A17.34,17.34,0,0,0,124,336.47h0a17.34,17.34,0,0,0,17.34-17.34v-109l40.52,40.51a17.34,17.34,0,1,0,24.52-24.53l-40.51-40.51h74.33a17.35,17.35,0,1,0,0-34.69Z"/></g></g></svg>