<svg xmlns="http://www.w3.org/2000/svg" xmlns:xlink="http://www.w3.org/1999/xlink" viewBox="0 0 544.21 439.28"><defs><style>.cls-1{isolation:isolate;}.cls-2,.cls-22{fill:#fff;}.cls-2{stroke:#310086;stroke-miterlimit:10;stroke-width:5px;}.cls-3{fill:#2a0f2f;}.cls-4{fill:#16acd4;}.cls-5{fill:#76f214;}.cls-6{fill:#310086;}.cls-7{fill:#f8dda8;}.cls-8{fill:#e0e0e0;mix-blend-mode:multiply;}.cls-9{fill:url(#Degradado_sin_nombre_6);}.cls-10{fill:url(#linear-gradient);}.cls-11,.cls-12{fill:#72aeff;}.cls-12{mix-blend-mode:screen;}.cls-13{fill:#f6f8ff;}.cls-14{fill:#fd525b;}.cls-15{fill:#0b566a;}.cls-16{fill:#fc9b9c;}.cls-17{fill:#441e47;}.cls-18{fill:#c2d9e0;}.cls-19{fill:#8dd7e3;}.cls-20{fill:#fd7b80;}.cls-21{fill:url(#linear-gradient-2);}.cls-23{fill:#e18b09;}.cls-24{fill:url(#Degradado_sin_nombre_2);}.cls-25{fill:url(#linear-gradient-3);}.cls-26{fill:#ff9d00;}.cls-27{fill:#e4fcd0;}</style><linearGradient id="Degradado_sin_nombre_6" x1="297.57" y1="246.46" x2="544.21" y2="246.46" gradientUnits="userSpaceOnUse"><stop offset="0" stop-color="#76f214"/><stop offset="1" stop-color="#16acd4"/></linearGradient><linearGradient id="linear-gradient" x1="550.4" y1="120.6" x2="325.19" y2="345.82" gradientTransform="translate(-79.2 76.79) rotate(-2.39)" gradientUnits="userSpaceOnUse"><stop offset="0" stop-color="#8dd7e3"/><stop offset="0.01" stop-color="#8ed7e3"/><stop offset="0.2" stop-color="#b0dde8"/><stop offset="0.39" stop-color="#cae1ec"/><stop offset="0.58" stop-color="#dde4ef"/><stop offset="0.79" stop-color="#e8e6f0"/><stop offset="1" stop-color="#ece7f1"/></linearGradient><linearGradient id="linear-gradient-2" x1="471.95" y1="228.49" x2="472.46" y2="228.49" gradientTransform="translate(-79.2 76.79) rotate(-2.39)" gradientUnits="userSpaceOnUse"><stop offset="0" stop-color="#ece7f1"/><stop offset="1" stop-color="#f87778"/></linearGradient><linearGradient id="Degradado_sin_nombre_2" y1="241.85" x2="222.69" y2="241.85" gradientUnits="userSpaceOnUse"><stop offset="0" stop-color="#16acd4"/><stop offset="1" stop-color="#76f214"/></linearGradient><linearGradient id="linear-gradient-3" x1="139.69" y1="42.2" x2="279.7" y2="388.22" xlink:href="#linear-gradient"/></defs><g class="cls-1"><g id="Capa_2" data-name="Capa 2"><g id="Capa_1-2" data-name="Capa 1"><path class="cls-2" d="M276.26,3.28C344.44,8.38,407.37,33.59,450,85.45c31.4,38.18,49.41,85,57.71,132.65,11,62.84,30.29,232.14-84.72,217.83-73.38-9.14-66.37-17.33-141.83-22.91-44.74-3.31-143.27,18.14-185.63.86-38.77-15.83-56.38-59-65.6-95C3.45,215.69,29,77.09,140.06,27A282.4,282.4,0,0,1,276.26,3.28Z"/><path class="cls-3" d="M142.48,49.62a1,1,0,0,1,1.17-1.6c1.8,1,3.57,2,5.26,3a1,1,0,0,1-1,1.71c-1.66-1-3.4-2-5.16-3A1,1,0,0,1,142.48,49.62Z"/><path class="cls-4" d="M71.39,156a.62.62,0,0,1-.17-.22,56.82,56.82,0,0,1-4.56-10.93,1,1,0,0,1,1.91-.59A55.22,55.22,0,0,0,73,154.81a1,1,0,0,1-.38,1.36A1,1,0,0,1,71.39,156Zm-7.24-22a1,1,0,0,1-.28-.52c-.69-3.67-1.27-7.57-1.71-11.61a1,1,0,1,1,2-.22c.43,4,1,7.84,1.68,11.45a1,1,0,0,1-1.68.9Zm-2.56-23.15a1,1,0,0,1-.3-.68c-.06-1.61-.09-3.1-.08-4.44a47.31,47.31,0,0,1,.57-7.38,1,1,0,1,1,2,.32,45.65,45.65,0,0,0-.54,7.06c0,1.31,0,2.78.08,4.37a1,1,0,0,1-1,1A1,1,0,0,1,61.59,110.81Zm4.66-13.36c-.49-.49-1-1-1.42-1.5a1,1,0,0,1,1.5-1.33,30.48,30.48,0,0,0,8.86,6.87,1,1,0,1,1-.92,1.78A32.85,32.85,0,0,1,66.25,97.45Zm-7-11.52A1.09,1.09,0,0,1,59,85.5a32.45,32.45,0,0,1-1.19-11.88,1,1,0,1,1,2,.16,30.67,30.67,0,0,0,1.11,11.15,1,1,0,0,1-.67,1.25A1,1,0,0,1,59.22,85.93Zm6.3,2.18A1,1,0,0,1,65.33,87a28,28,0,0,1,5-7,23.6,23.6,0,0,1,2.62-2.29,1,1,0,1,1,1.2,1.59,22.79,22.79,0,0,0-2.4,2.11,26,26,0,0,0-4.61,6.49,1,1,0,0,1-1.34.44A.94.94,0,0,1,65.52,88.11Zm19.63,18.11a1,1,0,0,1,.76-1.71,21.49,21.49,0,0,0,2.41,0,17.5,17.5,0,0,0,8.08-2.73,1,1,0,0,1,1.07,1.69,19.51,19.51,0,0,1-9,3,26,26,0,0,1-2.65,0A1,1,0,0,1,85.15,106.22ZM60.88,63.16a1,1,0,0,1-.21-1.11,36,36,0,0,1,3.6-6.46c.87-1.25,1.8-2.45,2.77-3.59a1,1,0,0,1,1.52,1.31,42.64,42.64,0,0,0-2.65,3.42,34.73,34.73,0,0,0-3.41,6.11,1,1,0,0,1-1.31.53A1,1,0,0,1,60.88,63.16ZM83.56,75a1,1,0,0,1,.57-1.7,26.52,26.52,0,0,1,12,1.07,1,1,0,0,1-.66,1.88,24.57,24.57,0,0,0-11-1A1,1,0,0,1,83.56,75Zm20.23,19.67a1,1,0,0,1-.22-1.1,12.9,12.9,0,0,0,1-6.91,13.45,13.45,0,0,0-1-3.59,1,1,0,1,1,1.81-.84,14.86,14.86,0,0,1,.12,12.12,1,1,0,0,1-1.31.53A1,1,0,0,1,103.79,94.69Zm-28-49A1,1,0,0,1,76,44.16a42.91,42.91,0,0,1,10.77-5,1,1,0,1,1,.59,1.91,40.84,40.84,0,0,0-10.27,4.77A1,1,0,0,1,75.81,45.71Zm22-7a1.06,1.06,0,0,1-.29-.65A1,1,0,0,1,98.4,37a66.21,66.21,0,0,1,11.8.28,1,1,0,1,1-.22,2A64.17,64.17,0,0,0,98.53,39,1,1,0,0,1,97.76,38.75Zm23.07,2.4a1,1,0,0,1,1-1.68A98.33,98.33,0,0,1,133,43.11a1,1,0,1,1-.73,1.86,96.89,96.89,0,0,0-11-3.56A1.1,1.1,0,0,1,120.83,41.15Z"/><path class="cls-3" d="M79.08,164.64a1,1,0,0,1,1.23-1.57,12.48,12.48,0,0,0,5.21,1.8,1,1,0,1,1-.21,2,14.62,14.62,0,0,1-6-2.08A1.33,1.33,0,0,1,79.08,164.64Z"/><polygon class="cls-5" points="141.25 40.61 135.46 57.85 171.09 64.95 141.25 40.61"/><polygon class="cls-6" points="138.2 42.75 127.89 52.24 171.09 64.95 147.59 35.63 141.25 40.61 161.87 59.58 138.2 42.75"/><path class="cls-3" d="M307.55,110.31a.93.93,0,0,1-.33,0,1,1,0,0,1-.67-1.25,50.78,50.78,0,0,1,2.14-5.73,1,1,0,1,1,1.82.81,49.85,49.85,0,0,0-2.05,5.5A1,1,0,0,1,307.55,110.31Z"/><path class="cls-4" d="M365.67,112.56a.74.74,0,0,1-.26,0,17.85,17.85,0,0,1-10.19-6.81,1,1,0,1,1,1.58-1.22,15.72,15.72,0,0,0,9,6.08,1,1,0,0,1-.17,2Zm11.46-1.65a1,1,0,0,1-.93-.54,1,1,0,0,1,.43-1.35,18.07,18.07,0,0,0,7.85-7.74,1,1,0,0,1,1.34-.44,1,1,0,0,1,.44,1.35,20.07,20.07,0,0,1-8.71,8.61A1.09,1.09,0,0,1,377.13,110.91Zm87.29-16.58a1,1,0,0,1-1-.78A35.48,35.48,0,0,0,459.1,83a1,1,0,1,1,1.71-1,37.44,37.44,0,0,1,4.55,11.2,1,1,0,0,1-.77,1.19Zm-113,1.06a1,1,0,0,1-1-.84,28,28,0,0,1-.29-2.93,29.08,29.08,0,0,1,1.14-9.2,1,1,0,0,1,1.24-.69,1,1,0,0,1,.68,1.24,26.89,26.89,0,0,0-1.06,8.57,24,24,0,0,0,.27,2.7,1,1,0,0,1-.84,1.14Zm-35.72-.84a1,1,0,0,1-.65-.21,1,1,0,0,1-.19-1.4,52.64,52.64,0,0,1,8.35-8.66,1,1,0,0,1,1.4.14,1,1,0,0,1-.13,1.41,50.59,50.59,0,0,0-8,8.32A1,1,0,0,1,315.67,94.55Zm70.58-3.26a1,1,0,0,1-1-.66,18.34,18.34,0,0,0-6.53-8.23l-.45-.34a1,1,0,0,1-.23-1.4,1,1,0,0,1,1.4-.22l.49.36a20.3,20.3,0,0,1,7.2,9.15,1,1,0,0,1-.6,1.28A1.5,1.5,0,0,1,386.25,91.29ZM333.77,79.67a1,1,0,0,1-.94-.56,1,1,0,0,1,.46-1.34,48.28,48.28,0,0,1,11.4-3.88,1,1,0,0,1,.4,2,46.2,46.2,0,0,0-10.92,3.72A.82.82,0,0,1,333.77,79.67Zm119-5.52a1,1,0,0,1-.75-.3,62.87,62.87,0,0,0-8.9-7.48,1,1,0,1,1,1.14-1.64,63.84,63.84,0,0,1,9.18,7.72,1,1,0,0,1-.67,1.7Zm-84.41,3a1,1,0,0,1-.34,0,47.84,47.84,0,0,0-11.38-2,1,1,0,0,1-.94-1.06,1,1,0,0,1,1.06-.94l.31,0-.1-.06a1,1,0,0,1-.2-1.4A45.79,45.79,0,0,1,365.18,63a1,1,0,1,1,1.23,1.57,44.2,44.2,0,0,0-8.09,8.21.87.87,0,0,1-.43.33,49.85,49.85,0,0,1,10.67,2,1,1,0,0,1-.25,2Zm65.16-16.51a1.1,1.1,0,0,1-.47-.1c-.72-.34-1.45-.67-2.17-1a67.74,67.74,0,0,0-8.75-3,1,1,0,0,1,.52-1.93,69.9,69.9,0,0,1,9,3.13c.74.32,1.49.65,2.23,1a1,1,0,0,1-.38,1.91ZM376,58.79a1,1,0,0,1-1-.61,1,1,0,0,1,.53-1.31l.29-.12A62,62,0,0,1,387,53.36a1,1,0,0,1,.4,2,60.33,60.33,0,0,0-10.82,3.28l-.28.12A1,1,0,0,1,376,58.79Zm34.82-4.44h-.15A77.16,77.16,0,0,0,399,53.93a1,1,0,1,1-.08-2h0a79.83,79.83,0,0,1,12,.43,1,1,0,0,1-.07,2Z"/><path class="cls-4" d="M463.09,112a.93.93,0,0,1-.4-.06,1,1,0,0,1-.58-1.29,32,32,0,0,0,1.54-5.6,1,1,0,0,1,1.16-.81,1,1,0,0,1,.81,1.16,33.37,33.37,0,0,1-1.64,6A1,1,0,0,1,463.09,112Z"/><rect class="cls-4" x="287.21" y="117.37" width="36.67" height="25.67" transform="translate(-5.16 12.85) rotate(-2.39)"/><polygon class="cls-7" points="320.01 125.09 306.06 134.68 291.04 126.3 289.76 95.66 318.73 94.45 320.01 125.09"/><path class="cls-3" d="M314.17,100.22l-19.8.82a.9.9,0,0,0,.08,1.8l19.79-.83A.9.9,0,0,0,314.17,100.22Z"/><path class="cls-3" d="M314.41,106.2l-19.79.82a.9.9,0,0,0,.07,1.8l19.8-.83A.9.9,0,0,0,314.41,106.2Z"/><path class="cls-3" d="M314.66,112.18l-19.79.82a.9.9,0,0,0,.07,1.8l19.8-.83A.9.9,0,0,0,314.66,112.18Z"/><path class="cls-3" d="M314.91,118.16l-19.79.83a.9.9,0,0,0,.07,1.79L315,120A.9.9,0,0,0,314.91,118.16Z"/><path class="cls-3" d="M320.75,124.78q-7.62,4.53-14.9,9.61-7.68-4.45-15.66-8.33c-.57-.29-1,.6-.46.88q7.95,3.87,15.61,8.31a.47.47,0,0,0,.56.28.45.45,0,0,0,.52-.32q7.26-5.07,14.87-9.59C321.85,125.29,321.31,124.45,320.75,124.78Z"/><ellipse class="cls-8" cx="374.43" cy="386.49" rx="80.5" ry="10"/><path class="cls-9" d="M408.5,394.93,307.07,355.66a14.53,14.53,0,0,1-7.9-20.31l112-228.67A17.87,17.87,0,0,1,433.28,98l101.43,39.27a14.52,14.52,0,0,1,7.9,20.3l-112,228.68A17.87,17.87,0,0,1,408.5,394.93Z"/><path class="cls-10" d="M400,391.65,298.6,352.38a14.52,14.52,0,0,1-7.9-20.31l112-228.68a17.88,17.88,0,0,1,22.1-8.69L526.23,134a14.53,14.53,0,0,1,7.9,20.31L422.12,383A17.89,17.89,0,0,1,400,391.65Z"/><path class="cls-11" d="M527.92,155.1,499.1,214,464.79,284l-20,40.8-5.88,12-13.76,28.1a1.91,1.91,0,0,1-2.34.92l-6-2.32-.55-.21-34-13.18-.45-.17-77.49-30a1.55,1.55,0,0,1-.84-2.16l37.3-76.15,33.09-67.56,27.47-56L406.25,108a1.91,1.91,0,0,1,2.35-.92L465.12,129l62,24A1.53,1.53,0,0,1,527.92,155.1Z"/><path class="cls-12" d="M499.1,214,464.79,284,401.34,118,406.25,108a1.91,1.91,0,0,1,2.35-.92L465.12,129Z"/><path class="cls-12" d="M438.92,336.82l-13.76,28.1a1.91,1.91,0,0,1-2.34.92l-6-2.32-.55-.21-34-13.18L340.78,241.65l33.09-67.56Z"/><path class="cls-13" d="M497.4,131.6l-51-19.75a1.15,1.15,0,0,1-.63-1.61h0a1.43,1.43,0,0,1,1.76-.7l51,19.75a1.15,1.15,0,0,1,.63,1.61h0A1.43,1.43,0,0,1,497.4,131.6Z"/><ellipse class="cls-6" cx="357.37" cy="355.56" rx="11.54" ry="10.58" transform="translate(-101.16 146.08) rotate(-20.3)"/><path class="cls-14" d="M442.76,249.32a86,86,0,0,0-4.1-10.19c-2-4.19-3.69-8.62-5.72-12.8a112.35,112.35,0,0,1-5.53-13.12c-1.32-3.93-3.23-7.92-4.05-12-.71-3.52-1.95-6.83-2.79-10.31a45.7,45.7,0,0,0-1.88-6.39L391,195.15c-2,6.19-2.1,13.53-1.58,20.09.73,9.21,1.32,18.66-.56,27.75-1.32,6.41-5.19,12.25-8.2,17.52,1.08.78,2.78.83,4,1.14,1.71.42,3.4.93,5.08,1.44,4.37,1.32,8.73,1.83,13.17,2.63,7.51,1.35,15,2.85,22.53,4.32,4.29.85,8.69,1.42,12.93,2.63,2,.58,3.8,1.66,5.89,1.6.12-3.66-.05-7.36.12-11A37.21,37.21,0,0,0,442.76,249.32Z"/><path class="cls-3" d="M394.48,199.05c0-.32-.48-.3-.5,0-.43,8.84,2.64,17.23,3.15,26,.56,9.71-1.21,19.3-3.82,28.61-.09.31.4.42.48.11,2.46-8.76,4.17-17.74,3.92-26.87C397.44,217.51,394,208.48,394.48,199.05Z"/><path class="cls-3" d="M400.71,202.46c0-.32-.55-.3-.5,0a200.7,200.7,0,0,1,1.39,53.74c0,.32.45.44.49.12A200.89,200.89,0,0,0,400.71,202.46Z"/><path class="cls-3" d="M405.5,196.2c-.07-.31-.54-.16-.48.16,4.41,22.25,11.94,44.07,11.8,67,0,.32.49.3.5,0C417.46,240.36,409.92,218.51,405.5,196.2Z"/><path class="cls-3" d="M421.53,235.6c-3-10.24-4.23-20.88-7.1-31.15-.08-.31-.56-.16-.47.15,2.7,9.69,4,19.69,6.6,29.39,2.73,10.06,8.11,19.51,7.81,30.18,0,.33.49.3.5,0C429.15,254,424.3,245.11,421.53,235.6Z"/><path class="cls-3" d="M427.51,229.64c-.13-.29-.61-.14-.47.15a109.85,109.85,0,0,1,9.49,33.89c0,.32.53.3.5,0A110.4,110.4,0,0,0,427.51,229.64Z"/><path class="cls-3" d="M416.14,192.07c-.06-.32-.54-.16-.47.15a234.24,234.24,0,0,0,6.47,24.43.25.25,0,0,0,.47-.15A236.75,236.75,0,0,1,416.14,192.07Z"/><path class="cls-4" d="M411.72,227.89h0a8.68,8.68,0,0,1-1.45,10.43l-29.16,28.93a6.82,6.82,0,0,1-10.66-1.34l-17.88-29.84,8.75-2.64,14,17.31,22.45-24.46A8.69,8.69,0,0,1,411.72,227.89Z"/><path class="cls-15" d="M355.57,237.93c0-.12,0-.23.05-.35s0-.4,0-.61a1,1,0,0,1-.08-.36,61.81,61.81,0,0,1,1.52-14.93,11.63,11.63,0,0,1,1-4,.84.84,0,0,1,.72-.41,7.58,7.58,0,0,1,1.7.33.82.82,0,0,1,.49.41.67.67,0,0,1,.34.5c.67,4.9,4.95,19.23-.43,23.31a2.91,2.91,0,0,1-2.58,1C355.84,242.58,355.37,240,355.57,237.93Z"/><path class="cls-3" d="M358.42,223.1c0-.32.47-.31.5,0a80.41,80.41,0,0,1-.05,15.59c0,.32-.54.31-.5,0A82,82,0,0,0,358.42,223.1Z"/><path class="cls-16" d="M355.83,236.35l-2.77.39-3.53-5.87s-2.35-3.89,2.44-7a11.52,11.52,0,0,1,9.6-1.17l2.55.78s1.85,2.61-6,1.83c0,0,6.09-.2,6.23,2.23,0,0,1,2.69-8.12.19,0,0,7.47.62,8,3.55,0,0,.07,2.6-8.68-.55C355.78,230.75,355.75,231.8,355.83,236.35Z"/><path class="cls-15" d="M358.72,208.07c-.56,0-34.48-17.26-34.48-17.26l-.31,41.63,34.41-11.75C363.63,221.13,364.4,208.58,358.72,208.07Z"/><path class="cls-4" d="M318.25,211.39c-.08,11.61,2.23,21,5.17,21.05,2.33,0,4.36-5.89,5.13-14.13.22-2.15.33-4.44.35-6.84a76.32,76.32,0,0,0-.41-8.69c-.78-7.26-2.6-12.33-4.76-12.35C320.79,190.41,318.34,199.8,318.25,211.39Z"/><path class="cls-15" d="M322.72,210.49c0,3.94,2.49,7.22,5.83,7.82.22-2.15.33-4.44.35-6.84a76.32,76.32,0,0,0-.41-8.69C325.24,203.42,322.75,206.62,322.72,210.49Z"/><path class="cls-4" d="M357.83,221.06l3.47,0a6.66,6.66,0,0,0,6.71-6.61h0a6.66,6.66,0,0,0-6.61-6.71l-3.47,0C362,212.46,361.62,216.88,357.83,221.06Z"/><path class="cls-3" d="M331.46,195.81q12.53,6.12,25,12.4c.29.15,0,.58-.25.43q-12.45-6.28-25-12.4C330.91,196.1,331.17,195.67,331.46,195.81Z"/><path class="cls-3" d="M325.52,229.49c4.71-11.12,3.74-23.93,1-35.4a.25.25,0,0,1,.49-.13c2.73,11.58,3.71,24.44-1.05,35.67C325.88,229.92,325.39,229.79,325.52,229.49Z"/><path class="cls-3" d="M323.31,193.57c.15-.29.58,0,.43.25a17.37,17.37,0,0,0-1.82,7.28.25.25,0,0,1-.5,0A17.87,17.87,0,0,1,323.31,193.57Z"/><path class="cls-3" d="M321.11,196.83a.25.25,0,0,1,.48.14,34.77,34.77,0,0,0-1.18,9.36c0,.32-.49.32-.5,0A35,35,0,0,1,321.11,196.83Z"/><path class="cls-3" d="M326.15,206.14c.23-.22.59.14.35.36-1.77,1.59-1.78,5.67-.66,7.57.17.27-.27.52-.43.25C324.14,212.18,324.2,207.9,326.15,206.14Z"/><path class="cls-3" d="M357.53,221.07a8.07,8.07,0,0,0,1.71-11.51c-.19-.26.24-.51.43-.25a8.56,8.56,0,0,1-1.89,12.19C357.52,221.7,357.27,221.26,357.53,221.07Z"/><path class="cls-3" d="M354.9,223.91a29.21,29.21,0,0,1,6.28,1.3c.31.09.18.58-.13.48a28.27,28.27,0,0,0-6.15-1.28C354.58,224.39,354.58,223.89,354.9,223.91Z"/><path class="cls-3" d="M355.27,226.74a46.77,46.77,0,0,1,6,1.72c.3.1.17.59-.14.48a47.9,47.9,0,0,0-6-1.71C354.82,227.16,355,226.68,355.27,226.74Z"/><path class="cls-3" d="M351.55,228.31a34.72,34.72,0,0,0,4.13,2.19s0,0,0,0,.33,0,.31.22c-.07.59-.13,1.18-.2,1.77l0,1.48a.25.25,0,0,1-.49.06c0-.14-.05-.28-.08-.42h0a22.39,22.39,0,0,1-.88-2.89.24.24,0,0,1,.13-.28,33.28,33.28,0,0,1-3.17-1.71C351,228.58,351.28,228.14,351.55,228.31Z"/><path class="cls-17" d="M444.8,324.82l-19.64,40.1a1.91,1.91,0,0,1-2.34.92l-6-2.32-.55-.21L381.81,350c1.37-6.81,5.51-25.3,12.89-41.47l42.42-2.94A159.29,159.29,0,0,1,444.8,324.82Z"/><path class="cls-4" d="M394.7,308.49s4.41-19.62,1.71-25.24l-8.16-17.06a26.82,26.82,0,0,1-1.59-18.62,25.84,25.84,0,0,1,2.52-6l7.38-12.66a15.2,15.2,0,0,1,8.47-7,13.28,13.28,0,0,1,4.12-.63l3.3,0a13.29,13.29,0,0,1,5.26,1.13,14.86,14.86,0,0,1,2.31,1.26,26.63,26.63,0,0,1,7.45,7.72c1.74,2.71,2.56,6.92,2.92,11a55.82,55.82,0,0,1-1,16.05,63.56,63.56,0,0,0-.47,20.69,79.53,79.53,0,0,0,3.59,16.13,57.16,57.16,0,0,0,3.35,7.75c.46.88,1.57,2,1.05,2.95s-2.84,1.25-3.75,1.46-1.44.41-2.37.57a159.86,159.86,0,0,1-27.63,2.41c-1.22,0-2.44-.1-3.66-.2s-3.4-.11-4.35-1C394.94,309,394.69,308.84,394.7,308.49Z"/><path class="cls-3" d="M410.68,232.52a29.24,29.24,0,0,1-4.55,4.35c-1.36,1-5,3.16-6.58,1.72-.24-.22-.6.13-.36.35,1.3,1.16,3.67.24,5.05-.38,2.73-1.25,4.79-3.5,6.79-5.68C411.24,232.64,410.89,232.28,410.68,232.52Z"/><path class="cls-3" d="M400.7,227.81c-1.38,2.93-2.68,5.89-2.7,9.18a.25.25,0,0,0,.5,0c0-3.21,1.29-6.07,2.63-8.93C401.27,227.78,400.84,227.52,400.7,227.81Z"/><path class="cls-3" d="M417.23,224.16a.25.25,0,0,0-.49.13c.45,1.84-.67,3.23-1.83,4.52-.21.23.14.59.35.35C416.55,227.73,417.71,226.18,417.23,224.16Z"/><path class="cls-3" d="M404.52,266a10.61,10.61,0,0,1-6.68-1.34c-1.48-.82-4.56-2.62-4.57-4.57a.36.36,0,0,0-.72,0c0,2.23,2.88,4,4.6,5a11.61,11.61,0,0,0,7.56,1.61C405.17,266.65,405,266,404.52,266Z"/><path class="cls-16" d="M380.33,294.08,369,287.91l-7.66,6.19c-1.54,1.15-3.07,2.36-4.57,3.65l-1.47-.33a15.66,15.66,0,0,0-6.78-.09l-5.27,1c-.92.29-1.07,1.46.09,1.63l4.18-.31-3,1.43a39.77,39.77,0,0,0-4.8,2.8l-2.4,1.65a.87.87,0,0,0,.9,1.44l6.78-3.52L341,306l-4.13,2.88c-.86.76.09,1.85.79,1.42l3.66-2.26,4.7-2.43-3,2.66a10.16,10.16,0,0,0-1.72,2l-1.64,2.51c-.29,1.4.44,1.44,1.39,1.13l1.54-2.15a8.38,8.38,0,0,1,2.1-2.06l3.22-2.23-4,6.27a.86.86,0,0,0,1.55.72,36.7,36.7,0,0,1,4.56-5.83,16.29,16.29,0,0,0,8.68-3.44l3.44-2.68Z"/><path class="cls-4" d="M408.63,238l-12.77,25.74-36.78,32.56L360.5,305l29.17-15.78a75.83,75.83,0,0,0,26.81-24.51L426,250.5a19.79,19.79,0,0,0,2.69-16.78c-2.22-7.07-6.79-8.55-14.54-2.49A19.79,19.79,0,0,0,408.63,238Z"/><path class="cls-18" d="M344.73,312.11l-65.12-.48a3,3,0,0,1-2.94-2.43l-7.85-38.74a3,3,0,0,1,3-3.63l65.12.49a3,3,0,0,1,2.94,2.42l7.85,38.74A3,3,0,0,1,344.73,312.11Z"/><path class="cls-19" d="M301.15,290.42a5.85,5.85,0,1,0,5.87-5.3A5.6,5.6,0,0,0,301.15,290.42Z"/><rect class="cls-19" x="283.95" y="311.89" width="61.59" height="3.89" transform="translate(2.33 -2.32) rotate(0.42)"/><rect class="cls-18" x="345.53" y="312.23" width="32.09" height="3.89" transform="translate(2.34 -2.67) rotate(0.42)"/><path class="cls-3" d="M334.69,269.56q-16.41-.31-32.81.08a.25.25,0,0,0,0,.5q16.41-.39,32.81-.08C335,270.07,335,269.57,334.69,269.56Z"/><path class="cls-3" d="M337.53,270.38c0-.32-.53-.16-.47.15q3.57,19.79,6.91,39.61c0,.31.55.3.5,0Q341.13,290.23,337.53,270.38Z"/><path class="cls-3" d="M306.37,284.86c-.31.08-.16.55.15.48,7.32-1.73,7.94,11.16.31,10.3-.32,0-.43.45-.11.49a5.58,5.58,0,0,0,6.23-5.78C312.8,286.67,310,284,306.37,284.86Z"/><path class="cls-3" d="M375.83,314.83l-28.21-.22c-.33,0-.3.49,0,.5l28.21.22C376.17,315.33,376.15,314.83,375.83,314.83Z"/><path class="cls-16" d="M415.78,225c.29,1.54-6.63,7.48-10.25,10.62a6,6,0,0,1-3,1.46c-6.35,1,.6-8.32,0-11.68l-.35-2-.61-3.36-1.83-6.42,10.35-7.31,1.81-2.46.22,1.16.85,4.64,1.62,8.78Z"/><path class="cls-20" d="M412.94,209.68c-1,6.56-5.27,11.84-10.79,13.75l-.61-3.36-1.83-6.42,10.35-7.31,1.81-2.46.22,1.16Z"/><path class="cls-16" d="M420.93,201.67c.66-2.88-.16-6.66-2.61-6.84a4.26,4.26,0,0,0-2.37.7c-1.86-8.15-8.09-17.18-14.2-17.64-8-.59-14.91,3.34-16,23.6-.45,8,5.15,16.4,13,17.66,5.9.95,12.76-5.33,16-11.9C417.28,206.49,420.09,205.32,420.93,201.67Z"/><path class="cls-3" d="M395.35,210.94c-.5,0-.8,0-.82,0a.49.49,0,0,1-.43-.54.48.48,0,0,1,.55-.43c.25,0,6.19.61,7.62-5.06a.5.5,0,0,1,.6-.36.49.49,0,0,1,.37.59C401.93,210.29,397.26,210.91,395.35,210.94Z"/><path class="cls-3" d="M401.88,199a1.46,1.46,0,1,1-1.55-1.47A1.5,1.5,0,0,1,401.88,199Z"/><path class="cls-3" d="M392.17,199.44a1.46,1.46,0,1,1-1.55-1.47A1.51,1.51,0,0,1,392.17,199.44Z"/><path class="cls-3" d="M404.3,196.14a.49.49,0,0,1-.48-.23,3.15,3.15,0,0,0-4.25-1.31.5.5,0,0,1-.67-.2.48.48,0,0,1,.21-.66,4.13,4.13,0,0,1,5.56,1.66.5.5,0,0,1-.37.74Z"/><path class="cls-3" d="M392.46,195a.44.44,0,0,1-.44.11,2.67,2.67,0,0,0-3.45,1.45.42.42,0,0,1-.54.24.4.4,0,0,1-.23-.53,3.48,3.48,0,0,1,4.48-1.94.41.41,0,0,1,.27.52A.38.38,0,0,1,392.46,195Z"/><path class="cls-3" d="M395,206.69a.45.45,0,0,0,.39-.5.45.45,0,0,0-.52-.38s-.87.1-1.16-.32c-.14-.2-.33-.84.71-2.55a.45.45,0,0,0-.16-.61.46.46,0,0,0-.63.16c-1,1.6-1.2,2.75-.69,3.5a2.28,2.28,0,0,0,2.06.7Z"/><path class="cls-3" d="M416.83,363.52l-.55-.21c-2-9.43-7.24-17.81-11-26.66-.13-.29.31-.54.43-.24C409.53,345.41,414.8,353.9,416.83,363.52Z"/><path class="cls-3" d="M428.87,306.11a136.58,136.58,0,0,1-27.4,1.46c-.32,0-.33.48,0,.5A137.89,137.89,0,0,0,429,306.6C429.32,306.55,429.19,306.06,428.87,306.11Z"/><path class="cls-3" d="M430.23,302.81a68.36,68.36,0,0,1-18.49,2.45.25.25,0,0,0,0,.5,68.55,68.55,0,0,0,18.63-2.47A.25.25,0,0,0,430.23,302.81Z"/><path class="cls-3" d="M362.16,296.51c0-.32-.51-.33-.5,0a29.09,29.09,0,0,0,.87,5.71.25.25,0,0,0,.49-.13A28.53,28.53,0,0,1,362.16,296.51Z"/><path class="cls-3" d="M363.63,295.2l0,5.29a.25.25,0,0,0,.5,0l0-5.29A.25.25,0,0,0,363.63,295.2Z"/><path class="cls-3" d="M389.83,245.75a19.74,19.74,0,0,0-3.18,17.34c.08.31.56.16.47-.15a19.19,19.19,0,0,1,3.08-16.85C390.39,245.83,390,245.49,389.83,245.75Z"/><path class="cls-3" d="M417.75,252.93c-2.93,12.14-11.82,21.65-19.39,31.18-.2.25.2.55.4.3,7.64-9.62,16.53-19.16,19.49-31.41C418.32,252.68,417.83,252.62,417.75,252.93Z"/><path class="cls-3" d="M410.63,237.33q-8.6,15.51-18,30.54c-.15.23.24.42.39.19q9.41-15,18-30.54C411.16,237.28,410.77,237.09,410.63,237.33Z"/><path class="cls-14" d="M418.73,183.87l-.06-.11c-3-6.24-11.78-9.33-18.29-8.46-12,1.6-17.6,14.07-17.31,25,.07,2.28.5,4.61.49,6.87a17.34,17.34,0,0,1,4.88-11.82,15.5,15.5,0,0,1,6.86-4c2.3-.67,12.93-1.8,12.93-1.8s-.59,2.21-1,3.06l0,0c-1.15,2.58.14,5.31,1.19,7.67.48,1.1,2.17,5.18.18,5.68C418,203.65,422.77,192.4,418.73,183.87Z"/><path class="cls-3" d="M408.56,182.93c-9,2.68-20,5.68-24.61,14.72a.25.25,0,0,0,.44.24c4.53-8.92,15.46-11.84,24.32-14.49A.25.25,0,0,0,408.56,182.93Z"/><path class="cls-3" d="M412.1,187c-2.08,5.23-1.82,9.61,0,14.86.11.3.59.15.48-.16-1.78-5.07-2.07-9.39-.06-14.46C412.66,186.93,412.22,186.69,412.1,187Z"/><path class="cls-3" d="M414.12,188.55a31.59,31.59,0,0,1-.91,8.82c-.08.31.41.42.49.11a32.14,32.14,0,0,0,.92-8.95A.25.25,0,0,0,414.12,188.55Z"/><path class="cls-3" d="M415.6,183.24c-.08-.31-.56-.15-.47.16,1.3,4.89,2.48,9.94-.06,14.65a.25.25,0,0,0,.44.23C418.11,193.47,417,188.27,415.6,183.24Z"/><path class="cls-3" d="M406.56,185.84a53,53,0,0,0-8.25,2.59c-.3.12-.15.59.15.47a52.72,52.72,0,0,1,8.26-2.58C407,186.25,406.88,185.77,406.56,185.84Z"/><path class="cls-3" d="M406.24,177.07A19.11,19.11,0,0,0,393.51,181c-4,3.05-5.58,7.41-8.09,11.58-.16.27.28.51.45.23,2.32-3.87,3.87-8,7.45-11a18.62,18.62,0,0,1,12.94-4.2C406.58,177.58,406.56,177.08,406.24,177.07Z"/><path class="cls-3" d="M412.61,181.62c-5.62-4-15.8-.81-19.55,4.5-.19.26.26.49.44.23,3.44-4.87,13.5-8.15,18.77-4.36C412.53,182.18,412.87,181.81,412.61,181.62Z"/><path class="cls-21" d="M402.35,285.18l-.49.4.07,0Z"/><path class="cls-22" d="M413.89,129.78a11.7,11.7,0,0,0-6.13-5.6,1,1,0,0,1,0-1.9,10.28,10.28,0,0,0,5.45-5.67,1,1,0,0,1,1.9-.11c1.16,2.39,3.38,4,6.42,5.07a1,1,0,0,1,.12,1.92,11.08,11.08,0,0,0-5.83,6.17A1,1,0,0,1,413.89,129.78Z"/><path class="cls-22" d="M423.69,138.64a6.57,6.57,0,0,0-3.42-3.13.58.58,0,0,1,0-1.06,5.75,5.75,0,0,0,3-3.16.58.58,0,0,1,1.06-.07,5.85,5.85,0,0,0,3.59,2.84.58.58,0,0,1,.06,1.07,6.15,6.15,0,0,0-3.25,3.44A.58.58,0,0,1,423.69,138.64Z"/><path class="cls-22" d="M123.4,132.9a11.74,11.74,0,0,1,5.64-6.1,1,1,0,0,0-.14-1.9,10.28,10.28,0,0,1-5.9-5.19,1,1,0,0,0-1.9.05c-1,2.47-3,4.29-6,5.59a1,1,0,0,0,0,1.92,11.06,11.06,0,0,1,6.33,5.66A1,1,0,0,0,123.4,132.9Z"/><path class="cls-22" d="M114.37,142.54a6.53,6.53,0,0,1,3.16-3.4.58.58,0,0,0-.08-1.06,5.74,5.74,0,0,1-3.3-2.9.58.58,0,0,0-1.06,0,5.81,5.81,0,0,1-3.34,3.13.58.58,0,0,0,0,1.07,6.16,6.16,0,0,1,3.53,3.16A.58.58,0,0,0,114.37,142.54Z"/><path class="cls-22" d="M460.25,160.27a3,3,0,0,0,3-3.32,3,3,0,0,0-3-2.63l-11.12-.06a19,19,0,0,0,1-7.41c-.25-3.55-1.41-5.53-3.52-5.87a2,2,0,0,0-2.33,2,22,22,0,0,1-2.47,10l-2.05,3.94a6.85,6.85,0,0,1-3.46,3.19l-.08,14.61h0a23.57,23.57,0,0,0,7.8,1.4l12,.11a3,3,0,0,0,3-2.95h0a3,3,0,0,0-.77-2,3,3,0,0,0,2.89-3,2.92,2.92,0,0,0-.9-2.14h0a3,3,0,0,0,3-3h0A3,3,0,0,0,460.25,160.27Z"/><rect class="cls-23" x="426.03" y="157.76" width="10.81" height="18.84" rx="2.42" transform="translate(0.96 -2.46) rotate(0.33)"/><path class="cls-3" d="M435.6,158.84a10.5,10.5,0,0,0-4.18,0c-.82.17-.39,1.4.42,1.23a8.82,8.82,0,0,1,2.76-.09c0,2.8,0,5.59,0,8.39,0,.84,1.31.75,1.3-.08,0-2.79,0-5.59,0-8.38A.64.64,0,0,0,435.6,158.84Z"/><path class="cls-3" d="M447.74,142.44c-.45-.71-1.53,0-1.08.73,2.42,3.79,1.74,8.3.08,12.25-.32.77.84,1.36,1.16.59C449.76,151.61,450.42,146.64,447.74,142.44Z"/><path class="cls-3" d="M460.37,158.61q-3.3-.15-6.6-.1c-.83,0-.75,1.32.09,1.3q3.28,0,6.59.1C461.29,160,461.2,158.65,460.37,158.61Z"/><path class="cls-3" d="M459.11,164.83l-4.55.28a.65.65,0,0,0,.08,1.3l4.55-.28A.65.65,0,0,0,459.11,164.83Z"/><path class="cls-3" d="M458.32,170.59l-2.52.16a.65.65,0,0,0,.08,1.3l2.52-.16A.65.65,0,0,0,458.32,170.59Z"/><ellipse class="cls-8" cx="146.43" cy="384.49" rx="80.5" ry="10"/><path class="cls-24" d="M211.72,361.72l-104.53,30A17.36,17.36,0,0,1,86.31,381L.93,141.6A14.92,14.92,0,0,1,11,122l104.54-30a17.38,17.38,0,0,1,20.87,10.74L221.77,342.1A14.92,14.92,0,0,1,211.72,361.72Z"/><path class="cls-25" d="M219.88,359.38l-104.54,30a17.37,17.37,0,0,1-20.87-10.74L9.08,139.25a14.92,14.92,0,0,1,10-19.62l104.53-30a17.37,17.37,0,0,1,20.88,10.74l85.38,239.42A14.92,14.92,0,0,1,219.88,359.38Z"/><path class="cls-11" d="M217.8,326.37,171.74,339.6,95.68,361.45a1.83,1.83,0,0,1-2.22-1.14L83.71,333,66.43,284.53h0L38.7,206.78h0L15.11,140.65a1.61,1.61,0,0,1,1.07-2.09L136,104.16h0l2.34-.68a1.84,1.84,0,0,1,2.21,1.14L163.11,168l21,59.05,24.36,68.26,10.35,29A1.59,1.59,0,0,1,217.8,326.37Z"/><path class="cls-12" d="M163.11,168,66.43,284.52,38.7,206.78h0L136,104.16h0l2.34-.68a1.84,1.84,0,0,1,2.21,1.14Z"/><path class="cls-12" d="M208.52,295.26,171.74,339.6,95.68,361.45a1.83,1.83,0,0,1-2.22-1.14L83.71,333,184.16,227Z"/><path class="cls-13" d="M100.43,104.8,47.87,119.9a1.39,1.39,0,0,1-1.66-.86h0a1.19,1.19,0,0,1,.8-1.56l52.56-15.1a1.39,1.39,0,0,1,1.66.86h0A1.19,1.19,0,0,1,100.43,104.8Z"/><ellipse class="cls-6" cx="161.47" cy="357.17" rx="10.71" ry="11.4" transform="translate(-230.48 353.08) rotate(-65.08)"/><path class="cls-4" d="M119,294.38l44.52-2s15.57,23.41,17.68,44.29l-68.37,19.78S106.63,319.8,119,294.38Z"/><path class="cls-3" d="M150.15,306.27c-.06-.32-.53-.16-.47.15A62.06,62.06,0,0,1,150.85,319c0,1.76.09,4.75-.43,6.29q.3,2.6-2.7,2.89c-.85.05-1.7.08-2.55.1a.25.25,0,0,0,0,.5c1.25,0,2.21-.05,3-.13v0a100.54,100.54,0,0,1-1.07,17.16c0,.31.44.43.48.11a101,101,0,0,0,1.09-17.29s0,0,0-.07c1.82-.31,2.14-1.29,2.47-4.76A61.36,61.36,0,0,0,150.15,306.27Z"/><path class="cls-3" d="M161.06,299.36l-.63-3c-.07-.31-.55-.16-.48.15.21,1,.43,2,.64,3a.2.2,0,0,0,.11.15.25.25,0,0,0-.17,0c-.24.15-.49.27-.73.41-.3-1-.61-1.92-.92-2.88a.25.25,0,0,0-.47.15c.31,1,.63,2,1,3-8.27,4.44-18.89,3.41-28.36,1.92a14.3,14.3,0,0,1,.13-3.33c.05-.32-.44-.43-.49-.11a14.56,14.56,0,0,0-.14,3.36l-1-.16s0,0,0-.08a12.47,12.47,0,0,1,.37-3,.25.25,0,0,0-.49-.11,13.4,13.4,0,0,0-.38,3.09l-4.21-.7c-.31-.05-.43.44-.11.49l5.86,1a.49.49,0,0,0,0,.12c0,.32.53.3.5,0h0c9.54,1.49,20.14,2.49,28.5-2,.14.21.52.07.43-.2v0l.84-.48a.24.24,0,0,0-.06-.43A.26.26,0,0,0,161.06,299.36Z"/><path class="cls-3" d="M148,299a1.33,1.33,0,0,0-1.58.42c-.55.8.31,1.6,1.06,1.76a1.42,1.42,0,0,0,1.8-1.19A1,1,0,0,0,148,299Zm.62,1.4a1.14,1.14,0,0,1-1.41.16c-.52-.29-.63-.95,0-1.13a1.07,1.07,0,0,1,.56,0,.21.21,0,0,0,.17.05,4.91,4.91,0,0,1,.57.25.26.26,0,0,0,.15,0A.71.71,0,0,1,148.62,300.4Z"/><path class="cls-4" d="M163,217.81h0a8.68,8.68,0,0,0,.79,10.5L191.06,259a6.82,6.82,0,0,0,10.72-.66l19.74-28.65L213,226.54l-15.06,16.39L177,217.1A8.69,8.69,0,0,0,163,217.81Z"/><path class="cls-26" d="M218.4,231.39c0-.12,0-.23,0-.35s0-.4,0-.61a1.09,1.09,0,0,0,.11-.36,62.13,62.13,0,0,0-.58-15,11.57,11.57,0,0,0-.72-4.05.8.8,0,0,0-.69-.45,7.35,7.35,0,0,0-1.72.23.76.76,0,0,0-.51.37.65.65,0,0,0-.37.48c-1,4.84-6.16,18.88-1.06,23.29a2.93,2.93,0,0,0,2.52,1.14C217.84,236,218.46,233.51,218.4,231.39Z"/><path class="cls-3" d="M216.5,216.42c.05-.32-.45-.35-.5,0a80.25,80.25,0,0,0-.94,15.56c0,.32.52.35.5,0A81.8,81.8,0,0,1,216.5,216.42Z"/><path class="cls-16" d="M218.24,229.8l2.74.56,3.9-5.63s2.59-3.73-2-7.12a11.53,11.53,0,0,0-9.51-1.78l-2.59.62s-2,2.49,5.89,2.21c0,0-6.07-.59-6.37,1.83,0,0-1.12,2.62,8.1.7,0,0-7.49.15-8.22,3,0,0-.23,2.59,8.7,0C218.65,224.21,218.61,225.26,218.24,229.8Z"/><path class="cls-27" d="M217.15,201.4c.56,0,35.51-15.05,35.51-15.05l-2.34,41.57L216.73,214C211.42,214.11,211.45,201.55,217.15,201.4Z"/><path class="cls-26" d="M257.33,207.28c-.65,11.58-3.56,20.84-6.49,20.68-2.33-.13-4-6.16-4.23-14.43-.08-2.16,0-4.46.09-6.85a74,74,0,0,1,1-8.64c1.24-7.2,3.37-12.15,5.53-12C256.13,186.18,258,195.7,257.33,207.28Z"/><path class="cls-7" d="M252.93,206.09c-.22,3.94-3,7-6.32,7.44-.08-2.16,0-4.46.09-6.85a74,74,0,0,1,1-8.64C250.86,198.87,253.15,202.23,252.93,206.09Z"/><path class="cls-26" d="M217.21,214.42l-3.46-.2a6.66,6.66,0,0,1-6.28-7h0a6.66,6.66,0,0,1,7-6.27l3.47.19C213.6,205.57,213.7,210,217.21,214.42Z"/><path class="cls-3" d="M245.13,190.89q-12.88,5.31-25.7,10.79c-.3.13-.07.57.23.45q12.81-5.49,25.7-10.8C245.66,191.21,245.43,190.76,245.13,190.89Z"/><path class="cls-3" d="M248.93,224.88c-4-11.4-2.22-24.13,1.2-35.4.1-.31-.38-.47-.47-.16-3.46,11.39-5.26,24.16-1.22,35.66C248.54,225.29,249,225.18,248.93,224.88Z"/><path class="cls-3" d="M253.41,189.17c-.13-.3-.57-.07-.45.22a17.17,17.17,0,0,1,1.36,7.38.25.25,0,0,0,.5,0A17.8,17.8,0,0,0,253.41,189.17Z"/><path class="cls-3" d="M255.4,192.56a.25.25,0,0,0-.49.11,34.19,34.19,0,0,1,.58,9.41.25.25,0,0,0,.5,0A34.79,34.79,0,0,0,255.4,192.56Z"/><path class="cls-3" d="M249.78,201.54c-.22-.23-.6.1-.37.33,1.66,1.7,1.42,5.77.17,7.59a.25.25,0,0,0,.42.28C251.4,207.69,251.62,203.42,249.78,201.54Z"/><path class="cls-3" d="M217.52,214.44a8.07,8.07,0,0,1-1-11.59c.21-.25-.21-.52-.42-.28a8.57,8.57,0,0,0,1.12,12.29C217.49,215.07,217.76,214.65,217.52,214.44Z"/><path class="cls-3" d="M220,217.44a29,29,0,0,0-6.35.91.25.25,0,0,0,.1.49,28.56,28.56,0,0,1,6.22-.9C220.25,217.94,220.28,217.44,220,217.44Z"/><path class="cls-3" d="M219.41,220.25a46.67,46.67,0,0,0-6.1,1.33c-.31.09-.21.58.1.49a47.18,47.18,0,0,1,6.11-1.33C219.83,220.69,219.73,220.2,219.41,220.25Z"/><path class="cls-3" d="M223,222.05a33.23,33.23,0,0,1-4.26,1.92s0,0,0,0-.33,0-.32.2l.09,1.78c0,.49-.05,1-.07,1.47a.25.25,0,0,0,.49.1c0-.14.07-.28.1-.41h0a22.07,22.07,0,0,0,1.07-2.84A.24.24,0,0,0,220,224a33.31,33.31,0,0,0,3.27-1.51A.25.25,0,0,0,223,222.05Z"/><path class="cls-26" d="M178.6,218.56l-2.41,13.2a120.89,120.89,0,0,1-8,26.31l-6,13.74.13,29.2c-17.63,9.82-43.43-6.63-43.43-6.63l4.41-58.8c1.63-21,10.06-27.59,16.13-29.25a29.22,29.22,0,0,1,10.18-.94l.89.09a26.94,26.94,0,0,1,3.76.67l7.89,1.94a28.86,28.86,0,0,1,7.43,3l.1,0c.44.26.87.51,1.3.78A33.85,33.85,0,0,1,178.6,218.56Z"/><path class="cls-4" d="M169.64,211.08c.41,10.08-2,18.34-6.08,19.69-5,1.64-10.54-7.44-12.47-20.25-.25-1.71-.44-3.4-.53-5a26.94,26.94,0,0,1,3.76.67l7.89,1.94A28.86,28.86,0,0,1,169.64,211.08Z"/><path class="cls-16" d="M150.1,285.41l12.87-.75,4.29,8.86c.9,1.69,1.78,3.44,2.59,5.25l1.46.32a15.68,15.68,0,0,1,6.17,2.81l4.33,3.19c.71.65.35,1.78-.78,1.43l-3.65-2.06,2.09,2.57a40.24,40.24,0,0,1,3.15,4.57l1.47,2.52a.87.87,0,0,1-1.43.92L178,309l2.57,3.95,2.51,4.36c.46,1.06-.87,1.64-1.32,1l-2.35-3.61-3.21-4.19,1.58,3.68a10,10,0,0,1,.72,2.53l.41,3c-.33,1.39-1,1.11-1.74.42l-.48-2.59a8.18,8.18,0,0,0-1-2.76l-2-3.39,1,7.39a.85.85,0,0,1-1.7,0,37,37,0,0,0-1.65-7.21,16.41,16.41,0,0,1-6.39-6.81l-2-3.9Z"/><path class="cls-4" d="M148.36,222.65l.59,28.74,19.41,45.12-5,7.22L143.73,277a75.68,75.68,0,0,1-13.82-33.59l-2.57-16.91a19.81,19.81,0,0,1,4.72-16.33c5-5.45,9.78-4.83,14.22,4A19.74,19.74,0,0,1,148.36,222.65Z"/><path class="cls-16" d="M169,201.94l-4.52,7-.94,1.46c-.13.22-5.35,7.1-8.58,1.41-1.67-3-2.7-5.44-2.44-5.85l5.94-10,3.87-6.52Z"/><path class="cls-20" d="M169,201.94l-4.52,7a17.69,17.69,0,0,1-6-12.81v-.2l3.87-6.52Z"/><path class="cls-16" d="M176.11,200.85a13.46,13.46,0,0,1-3.05,1.91,13.06,13.06,0,0,1-1.72.62c-5.5,1.53-12.33-4.09-15.75-10.37-2.49-.5-5.21-1.4-6.21-5-.78-2.81-.24-6.68,2.05-7.1a3.75,3.75,0,0,1,2.27.47c1.28-8.35,6.62-18,12.35-19.06,7.51-1.37,14.24,1.88,16.5,22.08A19.33,19.33,0,0,1,176.11,200.85Z"/><path class="cls-3" d="M172.29,194.3a3.07,3.07,0,0,0,2.17.45,1.91,1.91,0,0,0,1-.53,2,2,0,0,0,.56-1.13,4.64,4.64,0,0,0-.67-2.93l-2.46-5.76a.4.4,0,0,0-.56-.22.44.44,0,0,0-.22.58l2.46,5.8a3.48,3.48,0,0,1,.54,2.59.91.91,0,0,1-.26.45,1.63,1.63,0,0,1-1.93,0l-.1-.05a.47.47,0,0,0-.62.15.14.14,0,0,0,0,.06A.4.4,0,0,0,172.29,194.3Z"/><path class="cls-3" d="M178.74,184.13a1.45,1.45,0,1,1-1.72-1.3A1.53,1.53,0,0,1,178.74,184.13Z"/><path class="cls-3" d="M168.85,184.85a1.51,1.51,0,0,1-1.12,1.83,1.6,1.6,0,1,1,1.12-1.83Z"/><path class="cls-22" d="M171.85,195.45a50.3,50.3,0,0,0-5.69-3.92.61.61,0,0,0-.5.7,5,5,0,0,0,5.73,4.13.61.61,0,0,0,.54-.67A.68.68,0,0,0,171.85,195.45Z"/><path class="cls-3" d="M174.71,179.53a.4.4,0,0,0,.44.08,2.58,2.58,0,0,1,3.54,1.18.41.41,0,0,0,.55.2.43.43,0,0,0,.2-.57,3.38,3.38,0,0,0-4.6-1.6.44.44,0,0,0-.23.56A.4.4,0,0,0,174.71,179.53Z"/><path class="cls-3" d="M168.83,180.32a.38.38,0,0,1-.43.11,2.57,2.57,0,0,0-3.42,1.48.42.42,0,0,1-.54.24.44.44,0,0,1-.24-.55,3.35,3.35,0,0,1,4.45-2,.42.42,0,0,1,.27.53A.42.42,0,0,1,168.83,180.32Z"/><path class="cls-3" d="M147.16,298.77a33.44,33.44,0,0,1-23.39-6.91c-.34-.26-.8.23-.46.5a34.2,34.2,0,0,0,23.87,7.08C147.61,299.41,147.59,298.74,147.16,298.77Z"/><path class="cls-3" d="M149.05,295.81c-5.41.23-13.41,1.1-17.94-2.4-.34-.27-.8.23-.45.49,4.7,3.64,12.86,2.82,18.42,2.58A.34.34,0,0,0,149.05,295.81Z"/><path class="cls-3" d="M162.35,241.72A54.09,54.09,0,0,0,157,263.2c0,.43.66.4.67,0A53.33,53.33,0,0,1,162.94,242C163.13,241.64,162.53,241.33,162.35,241.72Z"/><path class="cls-3" d="M171.15,213.88a39.23,39.23,0,0,1-1.63,10.89,13.11,13.11,0,0,1-2.91,5.31c-5.12,4.73-8.87,1.47-11.67-2.2-4.24-5.54-6.72-14-6.59-20.93,0-.43-.67-.4-.67,0-.15,7.71,3.56,23.64,12.52,26.09,9.64,2.64,11.32-13.35,11.62-19.22C171.84,213.42,171.17,213.45,171.15,213.88Z"/><path class="cls-18" d="M179.62,319.5l64.85-5.91a3,3,0,0,0,2.74-2.66l4.59-39.26a3,3,0,0,0-3.29-3.36l-64.85,5.9a3,3,0,0,0-2.74,2.67l-4.58,39.25A3,3,0,0,0,179.62,319.5Z"/><path class="cls-19" d="M221.24,294.25a5.85,5.85,0,1,1-6.29-4.79A5.6,5.6,0,0,1,221.24,294.25Z"/><rect class="cls-19" x="178.86" y="316.77" width="61.59" height="3.89" transform="translate(447.34 617.11) rotate(174.8)"/><rect class="cls-18" x="146.96" y="321.02" width="32.09" height="3.89" transform="translate(354.62 629.82) rotate(174.8)"/><path class="cls-3" d="M186.08,276.26q16.32-1.68,32.71-2.65a.25.25,0,0,1,0,.5q-16.38,1-32.71,2.65C185.78,276.79,185.76,276.29,186.08,276.26Z"/><path class="cls-3" d="M183.32,277.31c0-.32.52-.2.49.12q-1.92,20-3.6,40c0,.32-.52.35-.49,0Q181.4,297.39,183.32,277.31Z"/><path class="cls-3" d="M215.58,289.15c.32.05.21.54-.11.49-7.43-1.11-7,11.78.55,10.29.31-.06.47.41.15.48a5.58,5.58,0,0,1-6.69-5.24C209.32,291.49,211.89,288.6,215.58,289.15Z"/><path class="cls-3" d="M148.86,324.8l28.1-2.57c.32,0,.34.47,0,.5l-28.1,2.57C148.56,325.33,148.54,324.83,148.86,324.8Z"/><path class="cls-23" d="M191.09,166.89a6.22,6.22,0,0,1-4,.11c-1.87-.61-2.67-2.21-3.76-3.78-1.91-2.75-4.6-6-8.1-6a9.91,9.91,0,0,0-4.73,1.13c-1.21.61-1,.14-1.9-.73a5.63,5.63,0,0,0-2.45-1.29c-3.38-.71-6.08.51-8.43,2.9-1.77,1.81-2.92,4.22-4.64,6.11a10.71,10.71,0,0,1-6.19,3.36,13.48,13.48,0,0,0,6,1.43,11.65,11.65,0,0,0-.53,3.36c-.06,3.17.11,6.48-2.93,8.05,1.67-.11,3.08-.66,4.28-.17.18,1.93.59,2.37,1.12,4.23s1.67,4.65,3.42,5.48c.34-3.62-1.82-7.3.86-10.5,2.23-2.66,7-3.83,7.92-7.54-.22,2.39-.17,4.22-1.7,6.21,3.82.19,8.76-3.19,10.54-6.6-.51,2.49.73,3.71,2.35,5.28a9.12,9.12,0,0,1,3.11,5.68,5.9,5.9,0,0,0,.93-3.68c.36,1,.73,2,1,2.9a15,15,0,0,1,.11,6.89c2-4,3.95-8.13,3.94-12.74a16.59,16.59,0,0,0-2.52-8.24C187.07,170.27,189.5,169,191.09,166.89Z"/><path class="cls-3" d="M174.17,169.84c-.86,3.62-3.62,6-6.84,7.65-.29.14,0,.56.27.42,3.34-1.66,6.17-4.22,7.06-8A.25.25,0,0,0,174.17,169.84Z"/><path class="cls-3" d="M181.51,178c-2.73-2.21-4.84-4.67-4.06-8.42a.25.25,0,0,0-.49-.11c-.81,3.91,1.32,6.56,4.22,8.89C181.42,178.54,181.76,178.18,181.51,178Z"/><path class="cls-3" d="M182.07,167.74a.25.25,0,0,0-.34.37c4.67,4.4,4.7,10.74,2.26,16.32-.13.29.31.52.44.23C187,178.87,186.89,172.29,182.07,167.74Z"/><path class="cls-3" d="M184.54,167.05c-3.49-1.56-3.37-6.34-7-7.85a6,6,0,0,0-6.87,1.72.25.25,0,0,0,.37.34,5.44,5.44,0,0,1,6.28-1.56c1.85.81,2.71,2.4,3.59,4.09s1.67,3,3.36,3.7C184.6,167.62,184.83,167.18,184.54,167.05Z"/><path class="cls-3" d="M167.43,160.2a6.24,6.24,0,0,0-6.86-1.41c-3.82,1.69-4.31,6.75-8.41,8.18-.3.11-.15.59.16.48a8.63,8.63,0,0,0,4.3-3.66c1-1.46,1.9-3.19,3.46-4.17a5.74,5.74,0,0,1,7,.94C167.33,160.79,167.67,160.42,167.43,160.2Z"/><path class="cls-3" d="M159.73,164.72a9.05,9.05,0,0,0-4.21,5c-1.18,3.05-.55,8.58-3.6,10.5a.25.25,0,0,0,.27.42c1.95-1.23,2.25-3.29,2.6-5.42.65-3.9,1.41-8,5.21-10.05C160.28,165,160,164.57,159.73,164.72Z"/><path class="cls-3" d="M168.52,166.82a17.53,17.53,0,0,1-6.42,9.68c-1.5,1.13-3.22,1.93-4.39,3.44-2,2.61-1.42,5.93-.8,8.94.07.32.54.16.48-.15-.77-3.71-.94-6.89,2-9.68,1.39-1.32,3.18-2.14,4.59-3.45a17.75,17.75,0,0,0,5-8.67C169.09,166.62,168.6,166.51,168.52,166.82Z"/><path class="cls-3" d="M168.27,163c-6.18.23-8.49,6.47-9.94,11.51-.09.31.4.42.49.11,1.38-4.8,3.52-10.9,9.47-11.12A.25.25,0,0,0,168.27,163Z"/><path class="cls-3" d="M175,163.36a2.15,2.15,0,0,0-3,0,.25.25,0,0,0,.37.34c1-1,2.36-.16,2.92.84a10.12,10.12,0,0,1,1,3.37c0,.32.54.3.5,0C176.54,166.37,176.22,164.45,175,163.36Z"/><path class="cls-22" d="M105.41,158.55a3,3,0,0,0,2.07-3.94,3,3,0,0,0-3.55-1.82l-10.8,2.64a18.91,18.91,0,0,0-.86-7.43c-1.1-3.38-2.71-5-4.84-4.84a2,2,0,0,0-1.77,2.54,22.09,22.09,0,0,1,0,10.29l-1,4.32a7,7,0,0,1-2.58,3.93l3.46,14.19h0a23.65,23.65,0,0,0,7.91-.53l11.69-2.81a3,3,0,0,0,2.18-3.59h0a2.91,2.91,0,0,0-1.23-1.75,3,3,0,0,0,.7-5.42h0a3,3,0,0,0,2.18-3.59h0A3,3,0,0,0,105.41,158.55Z"/><rect class="cls-23" x="73.73" y="162.82" width="10.81" height="18.84" rx="2.42" transform="translate(-38.57 23.66) rotate(-13.71)"/><path class="cls-3" d="M81.15,163.14a10.38,10.38,0,0,0-4.05,1c-.75.36,0,1.45.71,1.09a8.48,8.48,0,0,1,2.65-.76c.69,2.71,1.37,5.42,2.06,8.13.21.81,1.45.42,1.24-.39-.68-2.71-1.37-5.41-2.05-8.12A.65.65,0,0,0,81.15,163.14Z"/><path class="cls-3" d="M89,144.29c-.61-.58-1.49.39-.88,1,3.27,3.09,3.71,7.64,3.06,11.87-.13.83,1.14,1.12,1.27.29C93.13,152.69,92.57,147.71,89,144.29Z"/><path class="cls-3" d="M105.12,156.91q-3.23.66-6.42,1.5c-.81.22-.41,1.46.4,1.25q3.18-.85,6.42-1.51C106.34,158,105.94,156.75,105.12,156.91Z"/><path class="cls-3" d="M105.41,163.25l-4.34,1.38a.65.65,0,0,0,.39,1.24l4.35-1.38A.65.65,0,0,0,105.41,163.25Z"/><path class="cls-3" d="M106.05,169l-2.42.77A.65.65,0,0,0,104,171l2.42-.77A.65.65,0,0,0,106.05,169Z"/></g></g></g></svg>