<svg xmlns="http://www.w3.org/2000/svg" viewBox="0 0 34.43 38.32"><defs><style>.cls-1{fill:currentColor;}</style></defs><g id="Capa_2" data-name="Capa 2"><g id="Capa_1-2" data-name="Capa 1"><path class="cls-1" d="M33.87,6.63A70,70,0,0,1,17.58.1a.73.73,0,0,0-.73,0A68,68,0,0,1,.56,6.63.76.76,0,0,0,0,7.36v8.26A23.17,23.17,0,0,0,7.61,33c3.72,3.45,8,5.36,9.61,5.36s5.88-1.91,9.6-5.36a23.17,23.17,0,0,0,7.61-17.34V7.36A.76.76,0,0,0,33.87,6.63ZM25.8,31.86a24.58,24.58,0,0,1-5.38,3.8,9.86,9.86,0,0,1-3.2,1.17A9.8,9.8,0,0,1,14,35.66a24.82,24.82,0,0,1-5.38-3.8A21.69,21.69,0,0,1,1.5,15.62V7.93A69,69,0,0,0,17.22,1.6,71.28,71.28,0,0,0,32.93,7.93v7.69h0A21.65,21.65,0,0,1,25.8,31.86Z"/><path class="cls-1" d="M31.27,8.64a72.49,72.49,0,0,1-13.7-5.57.75.75,0,0,0-.71,0A70.81,70.81,0,0,1,3.16,8.64a.74.74,0,0,0-.54.72v6.26a20.67,20.67,0,0,0,1.65,8.25,20.91,20.91,0,0,0,4.82,6.88,23.68,23.68,0,0,0,5,3.7,13.67,13.67,0,0,0,2.95,1.23h.27a13.67,13.67,0,0,0,2.95-1.23,23.68,23.68,0,0,0,5-3.7,20.91,20.91,0,0,0,4.82-6.88,20.67,20.67,0,0,0,1.65-8.25V9.35A.74.74,0,0,0,31.27,8.64Zm-1,7a18.85,18.85,0,0,1-6,14.05,22.1,22.1,0,0,1-4.72,3.46,12.83,12.83,0,0,1-2.37,1,12.6,12.6,0,0,1-2.38-1,21.8,21.8,0,0,1-4.71-3.46,18.82,18.82,0,0,1-6-14.05V9.92a73.34,73.34,0,0,0,13.1-5.34A73.34,73.34,0,0,0,30.31,9.91v5.71Z"/><path class="cls-1" d="M11,26.82v0a.75.75,0,0,0-1.11,1h0a.71.71,0,0,0,.55.25.78.78,0,0,0,.5-.19A.75.75,0,0,0,11,26.82Z"/><path class="cls-1" d="M15,30.22a20.08,20.08,0,0,1-2.58-1.95.75.75,0,1,0-1,1.11,21.34,21.34,0,0,0,2.78,2.1.77.77,0,0,0,.4.12.78.78,0,0,0,.64-.35A.75.75,0,0,0,15,30.22Z"/><path class="cls-1" d="M21.17,15.65V13.19a4,4,0,1,0-7.91,0v2.46a1.67,1.67,0,0,0-1.61,1.66v5.75a1.67,1.67,0,0,0,1.67,1.67h7.79a1.67,1.67,0,0,0,1.67-1.67V17.31A1.67,1.67,0,0,0,21.17,15.65Zm-6.42-2.46a2.47,2.47,0,1,1,4.93,0v2.46H14.75V13.19Zm6.53,9.87a.17.17,0,0,1-.17.17H13.32a.17.17,0,0,1-.17-.17V17.31h0a.17.17,0,0,1,.17-.17h7.79a.17.17,0,0,1,.17.17Z"/><path class="cls-1" d="M17.22,18.69a1,1,0,0,0-1,1,1,1,0,0,0,.3.73v.73a.75.75,0,1,0,1.49,0v-.73a1,1,0,0,0,.3-.73A1,1,0,0,0,17.22,18.69Z"/></g></g></svg>