<svg xmlns="http://www.w3.org/2000/svg" viewBox="0 0 29.99 29.99"><defs><style>.cls-1{fill:currentColor;fill-rule:evenodd;}</style></defs><g id="Capa_2" data-name="Capa 2"><g id="Capa_1-2" data-name="Capa 1"><path class="cls-1" d="M14.8,12.33l0,.49-.48-.06a7.63,7.63,0,0,1-4.53-2.33l-.63-.66L9,10.26a3,3,0,0,0,.59,3c.38.43.29.49-.37.23-.22-.08-.42-.14-.44-.11a3.67,3.67,0,0,0,.34,1.35A3.14,3.14,0,0,0,10.46,16l.46.23h-.55c-.53,0-.55,0-.5.22a2.92,2.92,0,0,0,1.79,1.65l.59.21-.52.32a5.12,5.12,0,0,1-2.55.75,2.7,2.7,0,0,0-.78.08,7.08,7.08,0,0,0,1.84.88,7.7,7.7,0,0,0,6.25-.74,8.67,8.67,0,0,0,3.18-3.9,11,11,0,0,0,.64-3c0-.46,0-.52.57-1.08a5.94,5.94,0,0,0,.66-.77c.1-.19.09-.19-.4,0-.81.3-.92.26-.52-.19a3,3,0,0,0,.65-1.08s-.15,0-.31.11a5,5,0,0,1-.84.34l-.51.17-.47-.33a3.91,3.91,0,0,0-.81-.44,3.14,3.14,0,0,0-1.67,0,2.89,2.89,0,0,0-1.86,2.9ZM15,28.19A13.2,13.2,0,1,0,1.8,15,13.2,13.2,0,0,0,15,28.19ZM15,30A15,15,0,1,0,0,15,15,15,0,0,0,15,30Z"/></g></g></svg>