<svg xmlns="http://www.w3.org/2000/svg" viewBox="0 0 29.99 29.99"><defs><style>.cls-1,.cls-2{fill:currentColor;}.cls-1{fill-rule:evenodd;}</style></defs><g id="Capa_2" data-name="Capa 2"><g id="Capa_1-2" data-name="Capa 1"><path class="cls-1" d="M15,1.8A13.2,13.2,0,1,0,28.19,15,13.2,13.2,0,0,0,15,1.8ZM15,0A15,15,0,1,0,30,15,15,15,0,0,0,15,0Z"/><path class="cls-2" d="M23.23,9.22a5,5,0,0,0-4.08-1.73H11A4.2,4.2,0,0,0,7.23,9.28c-.61.79-.28,2.61-.28,4.21v3c0,3.1.06,4,4.07,4h8.13c1.94,0,3.05.08,3.75-.58S24,18.47,24,16.53v-3C24,11.8,23.87,10,23.23,9.22Zm-5.65,6.21-3.69,1.93a.48.48,0,0,1-.26.07c-.11,0,.24,0,.15-.09s.17-.28.17-.48V13c0-.2-.34-.38-.17-.48s.16-.12.33,0l3.58,1.91a.53.53,0,0,1,.25.51A.62.62,0,0,1,17.58,15.43Z"/></g></g></svg>